<svg width="59.316mm" height="35.1mm" version="1.1" viewBox="0 0 210.17 124.37" xmlns="http://www.w3.org/2000/svg" xmlns:cc="http://creativecommons.org/ns#" xmlns:dc="http://purl.org/dc/elements/1.1/" xmlns:rdf="http://www.w3.org/1999/02/22-rdf-syntax-ns#">
 <metadata>
  <rdf:RDF>
   <cc:Work rdf:about="">
    <dc:format>image/svg+xml</dc:format>
    <dc:type rdf:resource="http://purl.org/dc/dcmitype/StillImage"/>
    <dc:title/>
   </cc:Work>
  </rdf:RDF>
 </metadata>
 <g transform="matrix(3.1897 0 0 3.1897 -38.85 -110.23)">
  <g style="font-feature-settings:normal;font-variant-caps:normal;font-variant-ligatures:normal;font-variant-numeric:normal" aria-label="Eid Mubarak!">
   <g stroke-width="2.2341">
    <path d="m16.21 57.485v-18.205h-3.1417v-3.037h20.177v7.3133h-3.0021v-4.2763h-10.368v7.226h9.0238v3.037h-9.0238v7.9416h10.368v-4.4159h3.0021v7.4529h-20.177v-3.037z"/>
    <path d="m37.748 37.885q0-0.80289 0.55853-1.3963 0.57598-0.59344 1.4487-0.59344 0.82034 0 1.4138 0.57598 0.59344 0.57599 0.59344 1.4138 0 0.8378-0.59344 1.4312-0.59344 0.57598-1.4138 0.57598-0.8378 0-1.4312-0.59344-0.57598-0.59344-0.57598-1.4138zm0.47126 19.688v-10.996h-2.6356v-2.9497h5.9519v13.946h2.6007v2.9497h-8.5525v-2.9497z"/>
    <path d="m67.158 57.573v2.9497h-6.3533v-2.4785q-2.4785 2.7577-6.0391 2.7577-3.2988 0-5.7948-2.2516-2.4959-2.2516-2.4959-6.4057 0-4.1715 2.5658-6.5802 2.5658-2.4087 5.7948-2.4087 3.421 0 5.9693 2.7228v-6.6849h-3.2465v-2.9497h6.5627v21.329zm-17.14-5.5155q0 2.7927 1.5709 4.2937 1.5883 1.5011 3.7875 1.5011 2.1294 0 3.7701-1.5709 1.6581-1.5883 1.6581-4.381 0-2.8101-1.693-4.2413-1.6756-1.4312-3.7701-1.4312-2.2516 0-3.7875 1.693-1.536 1.6756-1.536 4.1366z"/>
   </g>
   <g stroke-width=".9375">
    <path d="m14.247 71.098v-7.6392h-1.2231v-1.2744h3.4863l2.6807 6.98 2.71-6.98h3.5229v1.2744h-1.2305v7.6392h1.2305v1.2744h-3.8379v-1.2744h1.2158v-7.6392l-3.5156 9.0161h-0.30029l-3.479-9.0161v7.6392h1.1206v1.2744h-3.6035v-1.2744z"/>
    <path d="m34.081 71.135v1.2378h-2.6147v-0.81299q-1.2231 0.93018-2.3437 0.93018-0.71045 0-1.1792-0.30762-0.46143-0.31494-0.61523-0.80566-0.15381-0.49805-0.15381-1.5967v-3.2593h-1.0034v-1.2378h2.395v4.3213q0 0.78369 0.04394 1.0547 0.04395 0.271 0.25635 0.44678 0.2124 0.17578 0.53467 0.17578 0.9668 0 2.0654-0.92285v-3.8379h-1.2524v-1.2378h2.644v5.852z"/>
    <path d="m34.616 72.373v-1.2378h1.2598v-7.7124h-1.2598v-1.2378h2.6221v4.1016q1.0474-1.2012 2.5708-1.2012 1.4648 0 2.4536 1.0107 0.99609 1.0034 0.99609 2.6514 0 1.582-0.97412 2.666-0.9668 1.0767-2.4829 1.0767-0.84961 0-1.5527-0.36621t-1.0107-0.81299v1.062zm2.666-3.5303q0 1.106 0.67383 1.7578 0.68115 0.64453 1.5674 0.64453 0.93018 0 1.604-0.68848 0.67383-0.68848 0.67383-1.8457 0-1.1206-0.67383-1.7358-0.6665-0.62256-1.5674-0.62256-0.88623 0-1.582 0.64453-0.6958 0.63721-0.6958 1.8457z"/>
    <path d="m51.688 71.135v1.2378h-2.4316v-0.86426q-1.0107 0.98144-2.2559 0.98144-0.9668 0-1.6846-0.62988-0.71045-0.62988-0.71045-1.6113 0-0.98877 0.75439-1.6406 0.76172-0.65186 1.8311-0.65186 0.99609 0 1.9263 0.60058v-0.70312q0-0.54199-0.10254-0.83496t-0.4834-0.52734q-0.37354-0.23438-0.98144-0.23438-1.0474 0-1.5161 0.83496l-1.333-0.35156q0.88623-1.6553 3.0615-1.6553 0.79834 0 1.377 0.21973 0.58594 0.2124 0.87158 0.55664 0.28564 0.33691 0.38086 0.73242 0.10254 0.39551 0.10254 1.2598v3.2812zm-2.5708-1.3989q-0.90088-0.70312-1.8237-0.70312-0.57861 0-0.9668 0.33691t-0.38818 0.87158q0 0.49805 0.33691 0.83496 0.34424 0.33691 0.93018 0.33691 1.0107 0 1.9116-0.84961z"/>
    <path d="m53.644 71.135v-4.6143h-1.4282v-1.2378h2.5415v1.5967q0.23438-0.62256 0.65186-1.0327t0.87891-0.54199q0.46875-0.13184 1.2744-0.13184h0.36621v1.4062h-0.27832q-1.062 0-1.5894 0.2124-0.52002 0.2124-0.77637 0.77637-0.24902 0.55664-0.24902 2.0068v1.5601h1.5454v1.2378h-4.3652v-1.2378z"/>
    <path d="m65.561 71.135v1.2378h-2.4316v-0.86426q-1.0107 0.98144-2.2559 0.98144-0.9668 0-1.6846-0.62988-0.71045-0.62988-0.71045-1.6113 0-0.98877 0.75439-1.6406 0.76172-0.65186 1.8311-0.65186 0.99609 0 1.9263 0.60058v-0.70312q0-0.54199-0.10254-0.83496t-0.4834-0.52734q-0.37354-0.23438-0.98144-0.23438-1.0474 0-1.5161 0.83496l-1.333-0.35156q0.88623-1.6553 3.0615-1.6553 0.79834 0 1.377 0.21973 0.58594 0.2124 0.87158 0.55664 0.28564 0.33691 0.38086 0.73242 0.10254 0.39551 0.10254 1.2598v3.2812zm-2.5708-1.3989q-0.90088-0.70312-1.8237-0.70312-0.57861 0-0.9668 0.33691-0.38818 0.33691-0.38818 0.87158 0 0.49805 0.33691 0.83496 0.34424 0.33691 0.93018 0.33691 1.0107 0 1.9116-0.84961z"/>
    <path d="m67.414 71.135v-7.7124h-1.2744v-1.2378h2.666v6.3647l2.6514-2.1167h-1.1792v-1.1499h3.9185v1.1499h-1.084l-2.6587 2.2119 2.4976 2.4902h1.2451v1.2378h-1.8237l-3.5669-3.5669v2.3291h1.2231v1.2378h-3.8892v-1.2378z"/>
    <path d="m76.942 69.611h-0.74707l-0.36621-4.3286v-3.0981h1.4795v3.0981zm-1.2671 2.7612v-1.8018h1.8018v1.8018z"/>
   </g>
  </g>
 </g>
</svg>
