<?xml version="1.0" encoding="UTF-8" standalone="no"?>
<svg
   xmlns:dc="http://purl.org/dc/elements/1.1/"
   xmlns:cc="http://creativecommons.org/ns#"
   xmlns:rdf="http://www.w3.org/1999/02/22-rdf-syntax-ns#"
   xmlns:svg="http://www.w3.org/2000/svg"
   xmlns="http://www.w3.org/2000/svg"
   xmlns:sodipodi="http://sodipodi.sourceforge.net/DTD/sodipodi-0.dtd"
   xmlns:inkscape="http://www.inkscape.org/namespaces/inkscape"
   width="59.316mm"
   height="35.1mm"
   version="1.1"
   viewBox="0 0 210.17 124.37"
   id="svg34"
   sodipodi:docname="hyvjou.svg"
   inkscape:version="0.92.2 (5c3e80d, 2017-08-06)">
  <defs
     id="defs38" />
  <sodipodi:namedview
     pagecolor="#ffffff"
     bordercolor="#666666"
     borderopacity="1"
     objecttolerance="10"
     gridtolerance="10"
     guidetolerance="10"
     inkscape:pageopacity="0"
     inkscape:pageshadow="2"
     inkscape:window-width="1366"
     inkscape:window-height="715"
     id="namedview36"
     showgrid="false"
     inkscape:zoom="1.4140015"
     inkscape:cx="30.544066"
     inkscape:cy="117.64349"
     inkscape:window-x="-8"
     inkscape:window-y="-8"
     inkscape:window-maximized="1"
     inkscape:current-layer="svg34" />
  <metadata
     id="metadata2">
    <rdf:RDF>
      <cc:Work
         rdf:about="">
        <dc:format>image/svg+xml</dc:format>
        <dc:type
           rdf:resource="http://purl.org/dc/dcmitype/StillImage" />
        <dc:title />
      </cc:Work>
    </rdf:RDF>
  </metadata>
  <g
     transform="matrix(3.1897 0 0 3.1897 -38.85 -110.23)"
     id="g32" />
  <path
     style="font-variant-ligatures:normal;font-variant-caps:normal;font-variant-numeric:normal;font-feature-settings:normal;stroke-width:7.60118723"
     d="M 93.824219 4.5488281 C 91.844686 4.5488281 90.200987 5.2222995 88.894531 6.5683594 C 87.627655 7.9143512 86.994141 9.4972184 86.994141 11.318359 C 86.994141 13.179126 87.648622 14.782846 88.955078 16.128906 C 90.301047 17.474966 91.923893 18.148438 93.824219 18.148438 C 95.684986 18.148438 97.288705 17.495909 98.634766 16.189453 C 99.980824 14.843484 100.65234 13.220638 100.65234 11.320312 C 100.65234 9.4199649 99.980824 7.8162449 98.634766 6.5097656 C 97.288659 5.2033091 95.68494 4.5488281 93.824219 4.5488281 z M 3.0253906 5.7324219 L 3.0253906 16.066406 L 13.714844 16.066406 L 13.714844 78.005859 L 3.0253906 78.003906 L 3.0253906 88.335938 L 71.673828 88.335938 L 71.673828 62.978516 L 61.460938 62.978516 L 61.460938 78.003906 L 26.185547 78.003906 L 26.185547 50.984375 L 56.886719 50.984375 L 56.886719 40.650391 L 26.185547 40.650391 L 26.185547 16.066406 L 61.460938 16.066406 L 61.460938 30.615234 L 71.673828 30.615234 L 71.673828 5.7324219 L 3.0253906 5.7324219 z M 154.39648 5.7363281 L 154.39648 15.771484 L 165.44141 15.771484 L 165.44141 38.515625 C 159.66126 32.339682 152.89244 29.251953 145.13281 29.251953 C 137.8087 29.251953 131.23585 31.983774 125.41602 37.447266 C 119.59618 42.910757 116.68555 50.374006 116.68555 59.835938 C 116.68555 69.2584 119.51645 76.521754 125.17773 81.628906 C 130.83924 86.736058 137.41208 89.291016 144.89453 89.291016 C 152.9708 89.291016 159.81958 86.163308 165.44141 79.908203 L 165.44141 88.339844 L 187.05664 88.339844 L 187.05664 78.304688 L 176.72461 78.304688 L 176.72461 5.7363281 L 154.39648 5.7363281 z M 79.630859 30.857422 L 79.630859 40.892578 L 88.597656 40.892578 L 88.597656 78.304688 L 79.630859 78.306641 L 79.630859 88.341797 L 108.72852 88.341797 L 108.72852 78.306641 L 99.880859 78.306641 L 99.880859 30.857422 L 79.630859 30.857422 z M 146.85352 39.705078 C 151.60432 39.705078 155.881 41.327925 159.68164 44.574219 C 163.52176 47.820512 165.44141 52.629946 165.44141 59.003906 C 165.44141 65.338399 163.55978 70.307523 159.79883 73.910156 C 156.07733 77.473322 151.80263 79.255859 146.97266 79.255859 C 141.98435 79.255859 137.68856 77.553279 134.08594 74.148438 C 130.52277 70.74382 128.74023 65.873556 128.74023 59.539062 C 128.74023 53.956944 130.48278 49.265493 133.9668 45.464844 C 137.45056 41.624725 141.74636 39.705078 146.85352 39.705078 z M 2.875 93.994141 L 2.875 98.330078 L 7.0351562 98.330078 L 7.0351562 124.32227 L 2.875 124.32227 L 2.875 128.6582 L 15.134766 128.6582 L 15.134766 124.32227 L 11.322266 124.32227 L 11.322266 98.330078 L 23.158203 129.00586 L 24.179688 129.00586 L 36.142578 98.330078 L 36.142578 124.32227 L 32.005859 124.32227 L 32.005859 128.6582 L 45.0625 128.6582 L 45.0625 124.32227 L 40.876953 124.32227 L 40.876953 98.330078 L 45.0625 98.330078 L 45.0625 93.994141 L 33.076172 93.994141 L 23.857422 117.74219 L 14.736328 93.994141 L 2.875 93.994141 z M 216.55859 93.994141 L 216.55859 104.53516 L 217.80469 119.26172 L 220.3457 119.26172 L 221.5918 104.53516 L 221.5918 93.994141 L 216.55859 93.994141 z M 76.337891 93.996094 L 76.337891 98.207031 L 80.625 98.207031 L 80.625 124.44727 L 76.337891 124.44727 L 76.337891 128.66016 L 85.259766 128.66016 L 85.259766 125.04688 C 85.957495 126.06027 87.104447 126.98185 88.699219 127.8125 C 90.293992 128.64316 92.053354 129.05859 93.980469 129.05859 C 97.419335 129.05859 100.23676 127.83674 102.42969 125.39453 C 104.63922 122.93577 105.74414 119.91256 105.74414 116.32422 C 105.74414 112.58617 104.61288 109.57868 102.35352 107.30273 C 100.11068 105.01024 97.328369 103.86523 94.005859 103.86523 C 90.550435 103.86523 87.63551 105.22658 85.259766 107.95117 L 85.259766 93.996094 L 76.337891 93.996094 z M 183.5918 93.996094 L 183.5918 98.207031 L 187.92773 98.207031 L 187.92773 124.44727 L 183.5918 124.44727 L 183.5918 128.6582 L 196.82422 128.6582 L 196.82422 124.44727 L 192.66406 124.44727 L 192.66406 116.52344 L 204.79883 128.6582 L 211.00391 128.6582 L 211.00391 124.44727 L 206.76758 124.44727 L 198.26953 115.97461 L 207.31641 108.44922 L 211.00391 108.44922 L 211.00391 104.53711 L 197.67188 104.53711 L 197.67188 108.44922 L 201.68359 108.44922 L 192.66406 115.65039 L 192.66406 93.996094 L 183.5918 93.996094 z M 121.06641 103.86328 C 116.13239 103.86328 112.66058 105.74149 110.65039 109.49609 L 115.18555 110.69141 C 116.24867 108.79752 117.96799 107.85156 120.34375 107.85156 C 121.72261 107.85156 122.83633 108.11681 123.68359 108.64844 C 124.54748 109.18004 125.09554 109.77884 125.32812 110.44336 C 125.56071 111.10788 125.67578 112.05385 125.67578 113.2832 L 125.67578 115.67578 C 123.56585 114.31353 121.38241 113.63281 119.12305 113.63281 C 116.69743 113.63281 114.62033 114.37104 112.89258 115.84961 C 111.18144 117.32811 110.32617 119.18888 110.32617 121.43164 C 110.32617 123.65773 111.13071 125.48536 112.74219 126.91406 C 114.37032 128.34279 116.28168 129.05664 118.47461 129.05664 C 121.29901 129.05664 123.85789 127.94488 126.15039 125.71875 L 126.15039 128.6582 L 134.42383 128.6582 L 134.42383 124.44727 L 130.36133 124.44727 L 130.36133 113.2832 C 130.36133 111.3228 130.24428 109.89516 130.01172 108.99805 C 129.79574 108.10094 129.36469 107.27005 128.7168 106.50586 C 128.0689 105.72504 127.081 105.0931 125.75195 104.61133 C 124.43942 104.11293 122.87722 103.86328 121.06641 103.86328 z M 168.26758 103.86328 C 163.33356 103.86328 159.86175 105.74149 157.85156 109.49609 L 162.38672 110.69141 C 163.44983 108.79752 165.16919 107.85156 167.54492 107.85156 C 168.92379 107.85156 170.03554 108.11681 170.88281 108.64844 C 171.74668 109.18004 172.29671 109.77884 172.5293 110.44336 C 172.76188 111.10788 172.87695 112.05385 172.87695 113.2832 L 172.87695 115.67578 C 170.76702 114.31353 168.58358 113.63281 166.32422 113.63281 C 163.89862 113.63281 161.82151 114.37104 160.09375 115.84961 C 158.38262 117.32811 157.52734 119.18888 157.52734 121.43164 C 157.52734 123.65773 158.33188 125.48536 159.94336 126.91406 C 161.5715 128.34279 163.48285 129.05664 165.67578 129.05664 C 168.50018 129.05664 171.05906 127.94488 173.35156 125.71875 L 173.35156 128.6582 L 181.62305 128.6582 L 181.62305 124.44727 L 177.5625 124.44727 L 177.5625 113.2832 C 177.5625 111.3228 177.4455 109.89516 177.21289 108.99805 C 176.99691 108.10094 176.56587 107.27005 175.91797 106.50586 C 175.27008 105.72504 174.28217 105.0931 172.95312 104.61133 C 171.64059 104.11293 170.0784 103.86328 168.26758 103.86328 z M 154.41016 104.16211 C 152.58276 104.16211 151.13745 104.31228 150.07422 104.61133 C 149.02758 104.91039 148.03092 105.52478 147.08398 106.45508 C 146.13704 107.38537 145.39686 108.55664 144.86523 109.96875 L 144.86523 104.53711 L 136.21875 104.53711 L 136.21875 108.74805 L 141.07812 108.74805 L 141.07812 124.44727 L 136.21875 124.44727 L 136.21875 128.6582 L 151.07031 128.6582 L 151.07031 124.44727 L 145.8125 124.44727 L 145.8125 119.13867 C 145.8125 115.84937 146.09532 113.57313 146.66016 112.31055 C 147.24162 111.03133 148.12126 110.15169 149.30078 109.66992 C 150.49705 109.18815 152.30012 108.94727 154.70898 108.94727 L 155.65625 108.94727 L 155.65625 104.16211 L 154.41016 104.16211 z M 47.605469 104.53711 L 47.605469 108.74805 L 51.019531 108.74805 L 51.019531 119.83789 C 51.019531 122.32988 51.194092 124.13984 51.542969 125.26953 C 51.891823 126.3826 52.588135 127.29736 53.634766 128.01172 C 54.698 128.70947 56.036972 129.05664 57.648438 129.05664 C 60.190219 129.05664 62.846819 128.00244 65.621094 125.89258 L 65.621094 128.6582 L 74.517578 128.6582 L 74.517578 124.44727 L 70.357422 124.44727 L 70.357422 104.53711 L 61.361328 104.53711 L 61.361328 108.74805 L 65.621094 108.74805 L 65.621094 121.80664 C 63.129213 123.89988 60.786676 124.94531 58.59375 124.94531 C 57.862766 124.94531 57.257163 124.74636 56.775391 124.34766 C 56.293618 123.94894 56.003985 123.44281 55.904297 122.82812 C 55.804631 122.2134 55.753906 121.01587 55.753906 119.23828 L 55.753906 104.53711 L 47.605469 104.53711 z M 93.158203 108.17578 C 95.201654 108.17578 96.980412 108.88086 98.492188 110.29297 C 100.02059 111.68839 100.78516 113.65744 100.78516 116.19922 C 100.78516 118.82405 100.02059 120.91687 98.492188 122.47852 C 96.963805 124.04015 95.145021 124.82227 93.035156 124.82227 C 91.024933 124.82227 89.246174 124.09085 87.701172 122.62891 C 86.172769 121.15046 85.408203 119.1571 85.408203 116.64844 C 85.408203 113.90729 86.197153 111.81447 87.775391 110.36914 C 89.353556 108.9072 91.148027 108.17578 93.158203 108.17578 z M 119.4707 117.29492 C 121.56388 117.29492 123.63238 118.09265 125.67578 119.6875 L 125.67578 122.50391 C 123.63233 124.43101 121.46437 125.39453 119.17188 125.39453 C 117.84282 125.39453 116.78863 125.01224 116.00781 124.24805 C 115.24363 123.48385 114.86133 122.5379 114.86133 121.4082 C 114.86131 120.19546 115.30114 119.2056 116.18164 118.44141 C 117.06214 117.67721 118.15829 117.29492 119.4707 117.29492 z M 166.67188 117.29492 C 168.76505 117.29492 170.83355 118.09265 172.87695 119.6875 L 172.87695 122.50391 C 170.83351 124.43101 168.66555 125.39453 166.37305 125.39453 C 165.044 125.39453 163.98981 125.01224 163.20898 124.24805 C 162.4448 123.48385 162.0625 122.5379 162.0625 121.4082 C 162.0625 120.19546 162.50233 119.2056 163.38281 118.44141 C 164.26332 117.67721 165.35945 117.29492 166.67188 117.29492 z M 216.03516 122.52539 L 216.03516 128.65625 L 222.16602 128.65625 L 222.16602 122.52539 L 216.03516 122.52539 z "
     transform="matrix(0.93749948,0,0,0.93749948,-0.00234552,0)"
     id="path908" />
</svg>
