<svg id="svg2" xmlns:rdf="http://www.w3.org/1999/02/22-rdf-syntax-ns#" xmlns="http://www.w3.org/2000/svg" height="35.1mm" width="59.316mm" version="1.1" xmlns:cc="http://creativecommons.org/ns#" xmlns:dc="http://purl.org/dc/elements/1.1/" viewBox="0 0 210.17387 124.37003">
 <g id="layer1" transform="translate(213.78 -651.62)">
  <path id="path4281" d="m-189 676.05c-0.81243 6.4657-1.1237 12.999-2.2446 19.423-2.7292-0.29476-0.15661-5.6512-0.51568-8.0351 1.2802-10.846 2.0442-21.765 3.644-32.566 2.7244 0.2893 0.1457 5.657 0.50848 8.0351-0.40923 3.8631-0.81845 7.7263-1.2277 11.589h29.725c0.82145-6.5326 1.1326-13.137 2.2731-19.624 2.7243 0.28935 0.14567 5.657 0.50845 8.0351-1.2754 10.847-2.0534 21.761-3.6368 32.566-2.7291-0.29481-0.15658-5.6512-0.51564-8.0351 0.40211-3.796 0.80423-7.592 1.2063-11.388h-29.724z"/>
  <path id="path4283" d="m-143.98 706.67c-3.3115 0.98106 1.3453-5.0236 1.9633-6.9733 1.7606-2.7596 3.0892-5.5174 1.2701-8.2631-3.1278-10.082-6.3993-20.118-9.4381-30.228 2.6717-1.7218 2.4198 4.7284 3.6646 6.5459 2.6393 8.4552 5.2786 16.91 7.9179 25.366 5.7551-10.829 11.298-21.775 17.186-32.53 2.6367 0.92608-1.937 5.4444-2.5244 7.8268-6.6798 12.752-13.36 25.504-20.039 38.256z"/>
  <path id="path4285" d="m-104.03 695.16c-2.7091 1.372-2.3417-4.6277-3.584-6.3017-2.9253-9.2343-6.0303-18.412-8.8438-27.681 2.7009-1.5918 2.4389 4.7316 3.7107 6.5548l8.1504 25.443c5.7964-10.836 11.369-21.805 17.304-32.559 2.6743 0.93028-1.9629 5.3696-2.5209 7.7253-4.7389 8.9396-9.4777 17.879-14.217 26.819z"/>
  <path id="path4287" d="m-70.911 652.52c3.5621-3.4869 4.3535 4.4366-0.09693 2.2732-0.18922-0.73168 0.06447-1.5162 0.09693-2.2732zm8.9202 0c3.5621-3.4869 4.3535 4.4366-0.09693 2.2732-0.18927-0.73018 0.06449-1.5169 0.09693-2.2732zm11.61 42.242c-2.8471 2.4758-0.75297-4.9543-0.85648-6.8548 1.0107-5.5943-5.2044 7.0133-8.9281 6.4412-12.459 7.0756-27.497-3.8684-24.711-17.193 1.8267-12.35 17.849-21.525 28.081-14.896 5.3842 2.112 7.9638 13.597 7.9625 2.9457-0.61369-4.2688 2.9481-6.3661 1.6793-0.91256l-3.2277 30.47zm0.15483-16.402c1.6259-12.363-13.264-21.621-24.266-13.83-10.024 5.709-12.195 20.623-3.7302 26.899 8.4448 8.0351 25.165 1.1612 27.622-10.881l0.22139-1.084 0.15254-1.1047z"/>
  <path id="path4289" d="m-27.641 652.52c3.5621-3.4869 4.3535 4.4366-0.09693 2.2732-0.18922-0.73168 0.06447-1.5162 0.09693-2.2732zm8.9202 0c3.5621-3.4869 4.3535 4.4366-0.09693 2.2732-0.18927-0.73018 0.06449-1.5169 0.09693-2.2732zm11.61 42.242c-2.8471 2.4758-0.75298-4.9543-0.85649-6.8548 1.0107-5.5943-5.2044 7.0133-8.9281 6.4412-12.459 7.0756-27.497-3.8684-24.711-17.193 1.8267-12.35 17.849-21.525 28.081-14.896 5.3842 2.112 7.9638 13.597 7.9625 2.9457-0.6137-4.2689 2.9481-6.3661 1.6793-0.91256l-3.2277 30.47zm0.15483-16.402c1.6259-12.363-13.264-21.621-24.266-13.83-10.024 5.709-12.195 20.623-3.7302 26.899 8.4448 8.0351 25.165 1.1612 27.622-10.881l0.22139-1.084 0.15254-1.1047z"/>
  <path id="path4291" d="m-194.61 724.62c2.8111-2.42 0.71797 4.9689 0.82776 6.8548-1.3488 12.253-2.4945 24.512-3.9714 36.761-0.68827 8.1078-16.086 10.648-16.031 3.748 4.6968 5.6859 15.675 0.86003 14.898-6.9941 1.4254-13.456 2.8511-26.913 4.2763-40.369z"/>
  <path id="path4293" d="m-187.36 747.24c0.71692-12.417 16.003-22.017 26.721-16.752 10.918 4.0905 13.173 20.081 3.7523 28.786-8.5221 9.3776-24.669 7.8436-29.022-2.9121-1.3018-2.7578-1.8038-5.937-1.4508-9.1217zm1.5826 0c-1.7129 11.393 10.385 20.345 21.305 15.44 11.109-3.955 15.925-19.485 8.1612-27.129-6.8469-8.2728-22.541-5.4428-27.561 5.318-1.048 2.013-1.6788 4.1954-1.9051 6.3718z"/>
  <path id="path4295" d="m-114.34 730.38c2.8926-2.3366 0.71505 4.9556 0.85648 6.8548-1.0892 9.0919-1.682 18.251-3.0791 27.301-3.3264-0.10849 1.9778-10.996-3.5009-3.3001-8.07 7.8221-22.119 4.7897-24.351-5.3593-1.2734-7.2791 0.89621-15.005 1.298-22.491-0.39222-4.9321 3.0366-3.9741 1.538 0.4216-0.40286 7.2834-2.485 14.787-1.2646 21.869 2.6608 11.371 20.759 10.897 25.375-0.52154 1.9043-8.149 2.0155-16.546 3.128-24.775z"/>
  <path id="path4297" d="m-104.05 720.19c2.8365-2.4946 0.76057 4.9573 0.85647 6.8548-1.4574 12.476-2.3809 25.03-4.1694 37.459-2.7561-0.20849-0.17138-5.6584-0.53003-8.0351 1.281-12.093 2.562-24.186 3.843-36.278z"/>
  <path id="path4299" d="m-64.815 730.38c2.8926-2.3366 0.71506 4.9556 0.85649 6.8548-1.0892 9.0919-1.682 18.251-3.0791 27.301-3.3264-0.10847 1.9778-10.996-3.5009-3.3001-8.07 7.8221-22.119 4.7897-24.351-5.3593-1.2734-7.2791 0.89621-15.005 1.298-22.491-0.39223-4.9321 3.0366-3.9741 1.538 0.4216-0.40286 7.2834-2.485 14.787-1.2646 21.869 2.6608 11.371 20.759 10.897 25.375-0.52154 1.9043-8.149 2.0155-16.546 3.128-24.775z"/>
  <path id="path4301" d="m-23.921 763.82c-2.8471 2.4758-0.75298-4.9543-0.85649-6.8548 1.0107-5.5944-5.2044 7.0133-8.9281 6.4412-12.459 7.0756-27.497-3.8684-24.711-17.193 1.8267-12.35 17.849-21.525 28.081-14.896 5.3842 2.112 7.9638 13.597 7.9625 2.9457-0.6137-4.2689 2.9481-6.3661 1.6793-0.91256l-3.2277 30.47zm0.15483-16.402c1.6259-12.363-13.264-21.621-24.266-13.83-10.024 5.709-12.195 20.623-3.7302 26.899 8.4448 8.0351 25.165 1.1612 27.622-10.881l0.22139-1.084 0.15254-1.1047z"/>
  <path id="path4351" d="m-10.542 720.57c2.8624-2.3425 0.67943 4.9716 0.8277 6.8548-1.0804 9.1005-1.702 18.257-3.067 27.323-2.7541-0.24567-0.17388-5.6269-0.53385-7.9991l2.7731-26.178z"/>
  <circle id="path4353" cx="-14.276" cy="761.09" r="1.0102"/>
 </g>
</svg>
