<?xml version="1.0" encoding="UTF-8" standalone="no"?>
<svg
   xmlns:dc="http://purl.org/dc/elements/1.1/"
   xmlns:cc="http://creativecommons.org/ns#"
   xmlns:rdf="http://www.w3.org/1999/02/22-rdf-syntax-ns#"
   xmlns:svg="http://www.w3.org/2000/svg"
   xmlns="http://www.w3.org/2000/svg"
   xmlns:sodipodi="http://sodipodi.sourceforge.net/DTD/sodipodi-0.dtd"
   xmlns:inkscape="http://www.inkscape.org/namespaces/inkscape"
   id="svg2"
   height="35.1mm"
   width="59.316mm"
   version="1.1"
   viewBox="0 0 210.17387 124.37003"
   sodipodi:docname="hyvjou.svg"
   inkscape:version="0.92.2 (5c3e80d, 2017-08-06)">
  <metadata
     id="metadata21">
    <rdf:RDF>
      <cc:Work
         rdf:about="">
        <dc:format>image/svg+xml</dc:format>
        <dc:type
           rdf:resource="http://purl.org/dc/dcmitype/StillImage" />
        <dc:title></dc:title>
      </cc:Work>
    </rdf:RDF>
  </metadata>
  <defs
     id="defs19" />
  <sodipodi:namedview
     pagecolor="#ffffff"
     bordercolor="#666666"
     borderopacity="1"
     objecttolerance="10"
     gridtolerance="10"
     guidetolerance="10"
     inkscape:pageopacity="0"
     inkscape:pageshadow="2"
     inkscape:window-width="1366"
     inkscape:window-height="715"
     id="namedview17"
     showgrid="false"
     inkscape:snap-bbox="true"
     inkscape:snap-page="true"
     inkscape:bbox-nodes="true"
     inkscape:zoom="1.9997001"
     inkscape:cx="134.36565"
     inkscape:cy="57.1624"
     inkscape:window-x="-8"
     inkscape:window-y="-8"
     inkscape:window-maximized="1"
     inkscape:current-layer="svg2"
     inkscape:snap-global="false" />
  <g
     id="g944">
    <path
       id="path923"
       d="m 20.229909,39.75374 c -1.260064,0 -2.951821,0.576393 -2.951821,2.088475 0,1.512081 1.691757,2.123751 2.951821,2.123751 1.260071,0 2.95182,-0.61167 2.95182,-2.123751 0,-1.512082 -1.691749,-2.088475 -2.95182,-2.088475 z"
       style="font-style:normal;font-variant:normal;font-weight:normal;font-stretch:normal;font-size:50.47141647px;line-height:1.25;font-family:sans-serif;-inkscape-font-specification:'sans-serif, Normal';font-variant-ligatures:normal;font-variant-caps:normal;font-variant-numeric:normal;font-feature-settings:normal;text-align:start;letter-spacing:0px;word-spacing:0px;writing-mode:lr-tb;text-anchor:start;fill:#000000;fill-opacity:1;stroke:none;stroke-width:2.25012231" />
    <path
       id="path921"
       d="m 9.0443331,42.845312 c -0.796546,0.0045 -1.4987809,0.02306 -2.6148467,0.07706 -1.9441025,0.108008 -2.0159042,1.584217 -2.0519087,3.312307 -0.035998,3.744208 -0.2520783,7.451828 -0.2520783,11.196028 0,2.70015 0.1801429,5.36455 0.5041633,8.028695 0.1080068,0.828044 0.071969,1.980442 0.5759917,2.66448 0.9720546,1.296069 4.0323834,1.295667 5.5444656,1.295667 1.512082,0 5.327648,-0.0726 5.327648,-2.268724 0,-1.512082 -1.764327,-2.051908 -2.988393,-2.051908 -0.792045,0 -1.620356,0.216815 -2.412394,0.216815 -0.576032,0 -0.431593,-0.468627 -0.467591,-0.86465 -0.2160134,-2.088113 -0.3957549,-4.140758 -0.3957549,-6.228864 0,-0.360025 0.2159799,-0.720077 0.5759979,-0.828084 1.584085,-0.468025 6.155727,-1.510972 6.155727,-3.563081 0,-1.404076 -1.583517,-2.053212 -2.771584,-2.053212 -1.404076,0 -2.988695,1.116727 -3.420715,1.116727 -0.324021,0 -0.431018,-0.287983 -0.431018,-0.575999 0,-0.828042 0.071099,-1.692759 0.107104,-2.520803 0.036,-0.720042 -1.67e-4,-1.438968 0.07184,-2.159012 0.036,-0.504023 0.324048,-0.756242 0.828077,-0.756242 0.936051,0 1.836832,0.07184 2.772881,0.07184 1.152063,0 2.879985,-0.575998 2.879985,-1.980074 0,-0.828042 -0.647459,-1.476544 -1.367502,-1.76456 -0.972055,-0.396022 -1.980334,-0.359183 -2.988393,-0.359183 -1.494079,0 -2.3851505,-0.0097 -3.1816966,-0.0052 z"
       style="font-style:normal;font-variant:normal;font-weight:normal;font-stretch:normal;font-size:50.47141647px;line-height:1.25;font-family:sans-serif;-inkscape-font-specification:'sans-serif, Normal';font-variant-ligatures:normal;font-variant-caps:normal;font-variant-numeric:normal;font-feature-settings:normal;text-align:start;letter-spacing:0px;word-spacing:0px;writing-mode:lr-tb;text-anchor:start;fill:#000000;fill-opacity:1;stroke:none;stroke-width:2.25012231" />
    <path
       id="path919"
       d="m 80.951237,43.003353 c -4.032212,0 -7.703702,8.928608 -9.287786,8.928608 -0.684039,0 -1.224133,-0.936044 -1.656154,-1.404069 -1.69209,-1.836102 -5.220478,-4.536147 -7.776617,-4.536147 -0.720035,0 -1.440038,0.215647 -1.980073,0.719669 -1.728088,1.620089 -2.6279,16.237301 -2.6279,19.189463 0,1.980105 0.935709,2.988392 2.951821,2.988392 2.052108,0 2.879984,-0.971714 2.879984,-2.951827 0,-3.7442 0.251811,-7.416552 0.647834,-11.16076 0.036,-0.396022 0.145114,-2.268724 0.649137,-2.268724 0.972054,0 4.248224,5.509197 7.020376,5.509197 3.31218,0 5.544026,-4.968461 6.012058,-4.968461 0.180005,0 0.18024,0.287749 0.18024,0.395749 0.108004,1.800098 0.07167,3.63596 0.143669,5.436058 0.10801,2.556138 -0.252784,6.696455 3.419412,6.696455 1.224068,0 3.133374,-0.863907 3.133374,-2.303987 0,-0.648035 -0.505133,-1.260198 -0.649137,-1.908239 -0.216013,-0.972048 -0.179505,-2.015603 -0.215514,-3.023654 -0.180004,-4.176229 -0.108402,-8.388608 -0.108402,-12.564836 0,-1.764098 -0.936217,-2.772887 -2.736322,-2.772887 z"
       style="font-style:normal;font-variant:normal;font-weight:normal;font-stretch:normal;font-size:50.47141647px;line-height:1.25;font-family:sans-serif;-inkscape-font-specification:'sans-serif, Normal';font-variant-ligatures:normal;font-variant-caps:normal;font-variant-numeric:normal;font-feature-settings:normal;text-align:start;letter-spacing:0px;word-spacing:0px;writing-mode:lr-tb;text-anchor:start;fill:#000000;fill-opacity:1;stroke:none;stroke-width:2.25012231" />
    <path
       style="font-style:normal;font-variant:normal;font-weight:normal;font-stretch:normal;font-size:50.47141647px;line-height:1.25;font-family:sans-serif;-inkscape-font-specification:'sans-serif, Normal';font-variant-ligatures:normal;font-variant-caps:normal;font-variant-numeric:normal;font-feature-settings:normal;text-align:start;letter-spacing:0px;word-spacing:0px;writing-mode:lr-tb;text-anchor:start;fill:#000000;fill-opacity:1;stroke:none;stroke-width:2.40013123"
       d="M 118.01367 46.177734 C 116.05518 46.177734 115.24805 47.637139 115.24805 49.365234 C 115.24805 50.210083 115.36523 51.017774 115.36523 51.824219 L 115.36523 70.755859 C 115.36523 73.520813 119.20501 73.212891 121.58594 73.212891 C 126.3862 73.212891 132.06836 68.834704 132.06836 63.765625 C 132.06836 59.695008 127.96094 58.736158 127.96094 58.044922 C 127.96094 57.660901 130.83984 54.971898 130.83984 51.861328 C 130.83984 47.713901 127.61499 46.253906 123.9668 46.253906 C 121.93148 46.253906 120.01058 46.177734 118.01367 46.177734 z M 123.16016 50.287109 C 124.12021 50.287109 124.58008 50.863504 124.58008 51.785156 C 124.58008 53.052422 122.88973 56.007812 121.92969 56.007812 C 121.66087 56.007812 121.58594 55.701107 121.58594 55.470703 L 121.58594 51.439453 C 121.58594 50.479404 122.31531 50.287109 123.16016 50.287109 z M 122.77539 61.769531 C 124.15787 61.769531 125.88672 61.960727 125.88672 63.765625 C 125.88672 65.263305 123.544 68.373102 122.46875 68.603516 C 120.62544 68.987535 121.4707 64.610528 121.4707 63.996094 C 121.4707 63.343263 121.81534 61.769531 122.77539 61.769531 z "
       transform="matrix(0.9374997,0,0,0.9374997,-4.3587209e-4,0)"
       id="path917" />
    <path
       style="font-style:normal;font-variant:normal;font-weight:normal;font-stretch:normal;font-size:50.47141647px;line-height:1.25;font-family:sans-serif;-inkscape-font-specification:'sans-serif, Normal';font-variant-ligatures:normal;font-variant-caps:normal;font-variant-numeric:normal;font-feature-settings:normal;text-align:start;letter-spacing:0px;word-spacing:0px;writing-mode:lr-tb;text-anchor:start;fill:#000000;fill-opacity:1;stroke:none;stroke-width:2.40013123"
       d="M 163.12305 46.447266 C 160.97254 46.447266 153.59961 47.830119 153.59961 50.671875 C 153.59961 51.555122 154.55859 51.786018 154.55859 52.630859 C 154.55859 52.822875 154.51953 52.975302 154.51953 53.128906 C 154.13551 57.698757 153.86843 62.307102 153.59961 66.876953 C 153.52281 67.875408 153.06055 68.335673 153.06055 69.910156 C 153.06055 70.831808 152.9082 71.75413 152.9082 72.675781 C 152.9082 74.749491 153.7909 75.900391 155.94141 75.900391 C 157.78471 75.900391 159.09053 75.132996 159.24414 73.212891 L 159.70508 67.146484 C 159.74348 66.839267 159.66621 65.648438 160.12695 65.648438 C 161.12541 65.648438 166.00329 71.406962 168.80664 71.675781 C 168.99865 71.675781 169.15175 71.714844 169.34375 71.714844 C 170.57263 71.714844 172.33984 71.17671 172.33984 69.640625 C 172.33984 69.026191 171.99402 68.413318 171.5332 68.029297 C 171.11077 67.645271 170.53504 67.41398 170.07422 67.068359 C 169.45979 66.607537 165.23438 63.151596 165.23438 62.767578 C 165.23438 62.537162 165.38808 62.421848 165.58008 62.306641 C 168.22984 60.770555 170.68713 59.003181 171.80078 56.007812 C 172.06959 55.278179 172.22461 54.472459 172.22461 53.666016 C 172.22461 48.788946 167.42408 46.447266 163.12305 46.447266 z M 163.04688 50.824219 C 164.69817 50.824219 166.11914 51.669712 166.11914 53.474609 C 166.11914 56.201159 163.27743 58.274326 161.01172 59.234375 C 160.93481 59.272775 160.819 59.3125 160.74219 59.3125 C 160.39657 59.3125 160.28125 59.004484 160.28125 58.697266 C 160.28125 56.546753 160.58858 54.318489 160.74219 52.167969 C 160.78059 51.668742 161.08672 51.171182 161.58594 51.017578 C 162.04677 50.902371 162.58605 50.824219 163.04688 50.824219 z "
       transform="matrix(0.9374997,0,0,0.9374997,-4.3587209e-4,0)"
       id="path915" />
    <path
       style="font-style:normal;font-variant:normal;font-weight:normal;font-stretch:normal;font-size:50.47141647px;line-height:1.25;font-family:sans-serif;-inkscape-font-specification:'sans-serif, Normal';font-variant-ligatures:normal;font-variant-caps:normal;font-variant-numeric:normal;font-feature-settings:normal;text-align:start;letter-spacing:0px;word-spacing:0px;writing-mode:lr-tb;text-anchor:start;fill:#000000;fill-opacity:1;stroke:none;stroke-width:2.40013123"
       d="M 185.14453 46.447266 C 184.64531 46.447266 184.14832 46.563185 183.6875 46.716797 C 180.26972 47.945663 177.19635 58.351746 176.12109 61.769531 C 175.69866 63.07521 175.54536 64.302354 174.66211 65.416016 C 174.12448 66.107252 174.24023 66.339376 174.24023 67.107422 C 174.24023 68.681906 172.51172 70.525064 172.51172 71.869141 C 172.51172 73.443623 174.3916 74.134766 175.69727 74.134766 C 179.46068 74.134766 179.27002 68.796875 181.22852 68.796875 L 185.10742 68.796875 C 187.60356 68.796875 185.108 75.441406 190.13867 75.441406 C 191.55955 75.441406 193.32422 74.748949 193.32422 73.097656 C 193.32422 71.907193 192.74994 70.832412 192.51953 69.71875 C 191.48267 64.956889 191.02129 60.079557 190.21484 55.279297 C 189.75402 52.514345 188.83114 46.447266 185.14453 46.447266 z M 184.10938 57.505859 C 184.26299 57.621068 185.10742 63.075649 185.10742 63.613281 C 185.10742 64.035705 184.79937 64.341797 184.37695 64.341797 L 182.6875 64.341797 C 182.30347 64.341797 181.99609 64.073471 181.99609 63.689453 C 181.99609 63.305433 182.45773 62.037658 182.61133 61.615234 C 182.76495 61.116006 183.87895 57.544264 184.10938 57.505859 z "
       transform="matrix(0.9374997,0,0,0.9374997,-4.3587209e-4,0)"
       id="path913" />
    <path
       style="font-style:normal;font-variant:normal;font-weight:normal;font-stretch:normal;font-size:50.47141647px;line-height:1.25;font-family:sans-serif;-inkscape-font-specification:'sans-serif, Normal';font-variant-ligatures:normal;font-variant-caps:normal;font-variant-numeric:normal;font-feature-settings:normal;text-align:start;letter-spacing:0px;word-spacing:0px;writing-mode:lr-tb;text-anchor:start;fill:#000000;fill-opacity:1;stroke:none;stroke-width:2.40013123"
       d="M 30.597656 46.837891 C 28.496941 46.864899 26.273438 47.232547 26.273438 49.738281 C 26.273438 55.575399 26.234375 61.412882 26.234375 67.25 C 26.234375 69.208503 27.309066 70.207031 29.267578 70.207031 C 29.728399 70.207031 30.189563 70.168612 30.650391 70.091797 C 37.639575 69.131748 44.896484 64.40762 44.896484 56.650391 C 44.896484 49.776414 38.599447 46.857422 32.570312 46.857422 C 31.984684 46.857422 31.297894 46.828899 30.597656 46.837891 z M 33.109375 51.273438 C 33.235381 51.261437 33.375685 51.274025 33.529297 51.3125 C 34.988573 51.619716 36.295837 51.73727 37.371094 52.927734 C 38.292745 53.964593 38.675781 55.306323 38.675781 56.650391 C 38.675781 60.183383 36.372953 63.14165 33.300781 64.677734 C 32.878357 64.908142 32.494141 64.599497 32.494141 64.138672 L 32.494141 52.158203 C 32.494141 51.582166 32.731354 51.309438 33.109375 51.273438 z "
       transform="matrix(0.9374997,0,0,0.9374997,-4.3587209e-4,0)"
       id="path911" />
    <path
       id="path909"
       d="m 202.66428,43.976413 c -1.18806,0 -2.66317,0.539423 -2.66317,1.943499 v 4.355897 c 0,3.600194 -0.0726,7.30922 0.28734,10.873417 0.14401,1.368071 1.54825,1.908232 2.73631,1.908232 1.40408,0 2.77288,-0.648062 2.77288,-2.232153 0,-0.756041 -0.18081,-1.476109 -0.21681,-2.232151 -0.21601,-4.104218 -0.10841,-8.208529 -0.10841,-12.312756 0,-1.728088 -1.26006,-2.303985 -2.80814,-2.303985 z"
       style="font-style:normal;font-variant:normal;font-weight:normal;font-stretch:normal;font-size:50.47141647px;line-height:1.25;font-family:sans-serif;-inkscape-font-specification:'sans-serif, Normal';font-variant-ligatures:normal;font-variant-caps:normal;font-variant-numeric:normal;font-feature-settings:normal;text-align:start;letter-spacing:0px;word-spacing:0px;writing-mode:lr-tb;text-anchor:start;fill:#000000;fill-opacity:1;stroke:none;stroke-width:2.25012231" />
    <path
       id="path907"
       d="m 184.38648,44.515836 c -1.44007,0 -2.98839,0.467491 -2.98839,2.195579 0,1.296076 0.28849,2.628811 0.36049,3.924879 0.32402,4.932269 0.17894,9.864724 0.17894,14.796993 0,1.908105 1.18903,2.591334 2.95313,2.591334 3.34818,0 2.91524,-2.771845 2.91524,-5.183979 0,-0.180009 0.0719,-0.467584 0.32393,-0.467584 0.18001,0 5.14833,4.140518 5.86837,4.644548 0.79205,0.576032 1.76427,0.863338 2.73632,0.863338 1.18807,0 2.55606,-0.683831 2.55606,-2.051902 0,-0.756047 -0.57595,-1.295974 -1.15199,-1.727995 -1.00805,-0.756041 -2.0156,-1.547779 -3.02366,-2.375822 -1.72808,-1.44008 -3.63571,-2.80912 -5.25581,-4.357206 -0.18001,-0.180009 -0.28865,-0.323981 -0.28865,-0.575999 0,-0.93605 8.67653,-7.128543 8.67653,-9.756684 0,-1.368078 -1.9076,-1.980074 -3.02366,-1.980074 -0.57603,0 -1.1527,0.109044 -1.69273,0.39706 -1.08006,0.576031 -4.60824,5.723404 -5.6163,5.723404 -0.14399,0 -0.21607,-0.215912 -0.25208,-0.323919 -0.39601,-1.188062 -0.21648,-2.591669 -0.36048,-3.85174 -0.18001,-1.656087 -1.29517,-2.484231 -2.91526,-2.484231 z"
       style="font-style:normal;font-variant:normal;font-weight:normal;font-stretch:normal;font-size:50.47141647px;line-height:1.25;font-family:sans-serif;-inkscape-font-specification:'sans-serif, Normal';font-variant-ligatures:normal;font-variant-caps:normal;font-variant-numeric:normal;font-feature-settings:normal;text-align:start;letter-spacing:0px;word-spacing:0px;writing-mode:lr-tb;text-anchor:start;fill:#000000;fill-opacity:1;stroke:none;stroke-width:2.25012231" />
    <path
       id="path905"
       d="m 102.10771,44.552416 c -0.86405,0 -1.72852,0.28714 -2.340562,0.93518 -0.900045,0.936051 -0.540727,2.700238 -0.540727,3.888307 0,3.7442 -2.123378,10.980916 -4.247492,13.897073 -0.504027,0.720037 -1.260033,1.799397 -1.980072,0.86334 -1.764096,-2.088108 -1.47591,-8.532451 -1.47591,-11.232595 0,-2.520134 -0.0727,-5.003729 -3.348888,-5.003729 -1.224068,0 -2.84341,0.647667 -2.84341,2.123744 0,0.432021 0.107674,0.900213 0.143675,1.33224 0.072,0.900046 0.07183,1.79969 0.07183,2.699742 0.072,5.868319 2.5e-4,14.796985 8.028695,14.796985 4.60825,0 6.732761,-4.103816 7.128791,-4.103816 0.32401,0 1.25912,1.871665 3.49125,1.871665 1.18805,0 3.16863,-0.683095 3.16863,-2.087171 0,-0.936057 -0.97255,-1.512917 -1.18857,-2.448967 -0.72003,-3.240177 -0.89991,-8.784336 -0.89991,-12.132513 0,-2.448132 0.21685,-5.399485 -3.16733,-5.399485 z"
       style="font-style:normal;font-variant:normal;font-weight:normal;font-stretch:normal;font-size:50.47141647px;line-height:1.25;font-family:sans-serif;-inkscape-font-specification:'sans-serif, Normal';font-variant-ligatures:normal;font-variant-caps:normal;font-variant-numeric:normal;font-feature-settings:normal;text-align:start;letter-spacing:0px;word-spacing:0px;writing-mode:lr-tb;text-anchor:start;fill:#000000;fill-opacity:1;stroke:none;stroke-width:2.25012231" />
    <path
       style="font-style:normal;font-variant:normal;font-weight:normal;font-stretch:normal;font-size:50.47141647px;line-height:1.25;font-family:sans-serif;-inkscape-font-specification:'sans-serif, Normal';font-variant-ligatures:normal;font-variant-caps:normal;font-variant-numeric:normal;font-feature-settings:normal;text-align:start;letter-spacing:0px;word-spacing:0px;writing-mode:lr-tb;text-anchor:start;fill:#000000;fill-opacity:1;stroke:none;stroke-width:2.40013123"
       d="M 140.17773 48.058594 C 139.40971 48.058594 138.63916 48.251403 137.98633 48.673828 C 136.75745 49.480271 136.68286 51.553704 136.29883 52.859375 C 135.7228 54.817885 135.10728 56.814927 134.53125 58.773438 C 133.4944 62.229621 132.22852 65.916252 132.22852 69.564453 C 132.22852 71.17734 133.87857 71.753906 135.22266 71.753906 C 138.83246 71.753906 138.10234 68.94932 138.60156 66.683594 C 138.75517 65.992357 138.9089 65.339681 139.0625 64.648438 C 139.13941 64.379626 139.21623 64.226562 139.52344 64.226562 C 139.71545 64.226562 139.90825 64.265625 140.13867 64.265625 C 141.75156 64.265625 143.40273 64.226562 145.01562 64.226562 C 145.36124 64.226562 145.39782 64.457743 145.47461 64.726562 C 145.66663 65.302591 145.82296 65.916817 145.97656 66.53125 C 146.55259 68.950583 146.43503 71.330078 149.69922 71.330078 C 151.31209 71.330078 152.77344 70.448792 152.77344 68.720703 C 152.77344 68.221476 152.61845 67.722548 152.46484 67.261719 C 150.54475 61.923829 149.31601 54.049169 144.97656 50.09375 C 143.74769 48.941684 141.86744 48.058594 140.17773 48.058594 z M 141.94336 55.357422 C 142.09698 55.357422 142.17319 55.546902 142.25 55.662109 C 142.55721 56.199733 143.78711 58.927849 143.78711 59.388672 C 143.78711 59.734293 143.5175 59.962891 143.17188 59.962891 L 141.21289 59.962891 C 140.86727 59.962891 140.56055 59.733629 140.56055 59.349609 C 140.56055 59.234402 141.48246 56.085857 141.59766 55.740234 C 141.63606 55.58663 141.75136 55.357422 141.94336 55.357422 z "
       transform="matrix(0.9374997,0,0,0.9374997,-4.3587209e-4,0)"
       id="path903" />
    <path
       id="path895"
       d="m 20.6975,49.149938 c -1.29607,0 -2.951821,0.612229 -2.951821,2.160316 0,6.300339 0.252077,8.35297 0.252077,14.653316 0,1.54808 1.655753,2.160315 2.951821,2.160315 1.296076,0 2.951827,-0.612235 2.951827,-2.160315 0,-6.300346 -0.252085,-8.352977 -0.252085,-14.653316 0,-1.548087 -1.655751,-2.160316 -2.951819,-2.160316 z"
       style="font-style:normal;font-variant:normal;font-weight:normal;font-stretch:normal;font-size:50.47141647px;line-height:1.25;font-family:sans-serif;-inkscape-font-specification:'sans-serif, Normal';font-variant-ligatures:normal;font-variant-caps:normal;font-variant-numeric:normal;font-feature-settings:normal;text-align:start;letter-spacing:0px;word-spacing:0px;writing-mode:lr-tb;text-anchor:start;fill:#000000;fill-opacity:1;stroke:none;stroke-width:2.25012231" />
    <path
       id="text833"
       d="m 203.34868,67.089439 c -1.15206,0 -2.77158,0.575431 -2.77158,1.9435 0,0.288017 -0.0366,0.576635 -0.0366,0.86465 0,1.656087 1.26081,2.303987 2.7729,2.303987 1.11606,0 2.69974,-0.54016 2.69974,-1.908231 l 0.0353,-0.86465 c 0,-1.584091 -1.22367,-2.339256 -2.69974,-2.339256 z"
       style="font-style:normal;font-variant:normal;font-weight:normal;font-stretch:normal;font-size:50.47141647px;line-height:1.25;font-family:sans-serif;-inkscape-font-specification:'sans-serif, Normal';font-variant-ligatures:normal;font-variant-caps:normal;font-variant-numeric:normal;font-feature-settings:normal;text-align:start;letter-spacing:0px;word-spacing:0px;writing-mode:lr-tb;text-anchor:start;fill:#000000;fill-opacity:1;stroke:none;stroke-width:2.25012231" />
  </g>
</svg>
