<svg id="svg34" width="59.316mm" height="35.1mm" version="1.1" viewBox="0 0 210.17 124.37" xmlns="http://www.w3.org/2000/svg">
<g id="layer1" transform="matrix(.9375 0 0 .9375 -.0023455 0)">
 <path id="path908" d="m93.824 4.5488c-1.9795 0-3.6232 0.67347-4.9297 2.0195-1.2669 1.346-1.9004 2.9289-1.9004 4.75 0 1.8608 0.65448 3.4645 1.9609 4.8105 1.346 1.3461 2.9688 2.0195 4.8691 2.0195 1.8608 0 3.4645-0.65253 4.8105-1.959 1.3461-1.346 2.0176-2.9688 2.0176-4.8691 0-1.9003-0.67152-3.5041-2.0176-4.8105-1.3461-1.3065-2.9498-1.9609-4.8105-1.9609zm-90.799 1.1836v10.334h10.689v61.939l-10.689-0.001953v10.332h68.648v-25.357h-10.213v15.025h-35.275v-27.02h30.701v-10.334h-30.701v-24.584h35.275v14.549h10.213v-24.883h-68.648zm151.37 0.0039062v10.035h11.045v22.744c-5.7802-6.1759-12.549-9.2637-20.309-9.2637-7.3241 0-13.897 2.7318-19.717 8.1953-5.8198 5.4635-8.7305 12.927-8.7305 22.389 0 9.4225 2.8309 16.686 8.4922 21.793 5.6615 5.1072 12.234 7.6621 19.717 7.6621 8.0763 0 14.925-3.1277 20.547-9.3828v8.4316h21.615v-10.035h-10.332v-72.568h-22.328zm-74.766 25.121v10.035h8.9668v37.412l-8.9668 0.001953v10.035h29.098v-10.035h-8.8477v-47.449h-20.25zm67.223 8.8477c4.7508 0 9.0275 1.6228 12.828 4.8691 3.8401 3.2463 5.7598 8.0557 5.7598 14.43 0 6.3345-1.8816 11.304-5.6426 14.906-3.7215 3.5632-7.9962 5.3457-12.826 5.3457-4.9883 0-9.2841-1.7026-12.887-5.1074-3.5632-3.4046-5.3457-8.2749-5.3457-14.609 0-5.5821 1.7426-10.274 5.2266-14.074 3.4838-3.8401 7.7796-5.7598 12.887-5.7598zm-143.98 54.289v4.3359h4.1602v25.992h-4.1602v4.3359h12.26v-4.3359h-3.8125v-25.992l11.836 30.676h1.0215l11.963-30.676v25.992h-4.1367v4.3359h13.057v-4.3359h-4.1855v-25.992h4.1855v-4.3359h-11.986l-9.2188 23.748-9.1211-23.748h-11.861zm213.68 0v10.541l1.2461 14.727h2.541l1.2461-14.727v-10.541h-5.0332zm-140.22 0.001953v4.2109h4.2871v26.24h-4.2871v4.2129h8.9219v-3.6133c0.69773 1.0134 1.8447 1.935 3.4395 2.7656 1.5948 0.83066 3.3541 1.2461 5.2812 1.2461 3.4389 0 6.2563-1.2218 8.4492-3.6641 2.2095-2.4588 3.3144-5.482 3.3144-9.0703 0-3.738-1.1313-6.7455-3.3906-9.0215-2.2428-2.2925-5.0252-3.4375-8.3477-3.4375-3.4554 0-6.3703 1.3614-8.7461 4.0859v-13.955h-8.9219zm107.25 0v4.2109h4.3359v26.24h-4.3359v4.2109h13.232v-4.2109h-4.1602v-7.9238l12.135 12.135h6.2051v-4.2109h-4.2363l-8.498-8.4727 9.0469-7.5254h3.6875v-3.9121h-13.332v3.9121h4.0117l-9.0195 7.2012v-21.654h-9.0723zm-62.525 9.8672c-4.934 0-8.4058 1.8782-10.416 5.6328l4.5352 1.1953c1.0631-1.8939 2.7824-2.8398 5.1582-2.8398 1.3789 0 2.4926 0.26525 3.3398 0.79688 0.86389 0.5316 1.412 1.1304 1.6445 1.7949 0.23259 0.66452 0.34766 1.6105 0.34766 2.8398v2.3926c-2.1099-1.3622-4.2934-2.043-6.5527-2.043-2.4256 0-4.5027 0.73823-6.2305 2.2168-1.7111 1.4785-2.5664 3.3393-2.5664 5.582 0 2.2261 0.80454 4.0537 2.416 5.4824 1.6281 1.4287 3.5395 2.1426 5.7324 2.1426 2.8244 0 5.3833-1.1118 7.6758-3.3379v2.9394h8.2734v-4.2109h-4.0625v-11.164c0-1.9604-0.11705-3.388-0.34961-4.2852-0.21598-0.89711-0.64703-1.728-1.2949-2.4922-0.6479-0.78082-1.6358-1.4128-2.9648-1.8945-1.3125-0.4984-2.8747-0.74805-4.6855-0.74805zm47.201 0c-4.934 0-8.4058 1.8782-10.416 5.6328l4.5352 1.1953c1.0631-1.8939 2.7825-2.8398 5.1582-2.8398 1.3789 0 2.4906 0.26525 3.3379 0.79688 0.86387 0.5316 1.4139 1.1304 1.6465 1.7949 0.23258 0.66452 0.34765 1.6105 0.34765 2.8398v2.3926c-2.1099-1.3622-4.2934-2.043-6.5527-2.043-2.4256 0-4.5027 0.73823-6.2305 2.2168-1.7111 1.4785-2.5664 3.3393-2.5664 5.582 0 2.2261 0.80454 4.0537 2.416 5.4824 1.6281 1.4287 3.5395 2.1426 5.7324 2.1426 2.8244 0 5.3833-1.1118 7.6758-3.3379v2.9394h8.2715v-4.2109h-4.0606v-11.164c0-1.9604-0.117-3.388-0.34961-4.2852-0.21598-0.89711-0.64702-1.728-1.2949-2.4922-0.64789-0.78082-1.6358-1.4128-2.9648-1.8945-1.3125-0.4984-2.8747-0.74805-4.6855-0.74805zm-13.857 0.29883c-1.8274 0-3.2727 0.15017-4.3359 0.44922-1.0466 0.29906-2.0433 0.91345-2.9902 1.8438-0.94694 0.93029-1.6871 2.1016-2.2188 3.5137v-5.4316h-8.6465v4.2109h4.8594v15.699h-4.8594v4.2109h14.852v-4.2109h-5.2578v-5.3086c0-3.2893 0.28282-5.5655 0.84766-6.8281 0.58146-1.2792 1.4611-2.1589 2.6406-2.6406 1.1963-0.48177 2.9993-0.72265 5.4082-0.72265h0.94727v-4.7852h-1.2461zm-106.8 0.375v4.2109h3.4141v11.09c0 2.492 0.17456 4.302 0.52344 5.4316 0.34885 1.1131 1.0452 2.0278 2.0918 2.7422 1.0632 0.69775 2.4022 1.0449 4.0137 1.0449 2.5418 0 5.1984-1.0542 7.9727-3.1641v2.7656h8.8965v-4.2109h-4.1602v-19.91h-8.9961v4.2109h4.2598v13.059c-2.4919 2.0932-4.8344 3.1387-7.0273 3.1387-0.73098 0-1.3366-0.19895-1.8184-0.59765-0.48177-0.39872-0.77141-0.90485-0.87109-1.5195-0.099666-0.61472-0.15039-1.8122-0.15039-3.5898v-14.701h-8.1484zm45.553 3.6387c2.0435 0 3.8222 0.70508 5.334 2.1172 1.5284 1.3954 2.293 3.3645 2.293 5.9062 0 2.6248-0.76457 4.7176-2.293 6.2793-1.5284 1.5616-3.3472 2.3438-5.457 2.3438-2.0102 0-3.789-0.73142-5.334-2.1934-1.5284-1.4784-2.293-3.4718-2.293-5.9805 0-2.7412 0.78895-4.834 2.3672-6.2793 1.5782-1.4619 3.3726-2.1934 5.3828-2.1934zm26.312 9.1191c2.0932 0 4.1617 0.79773 6.2051 2.3926v2.8164c-2.0434 1.9271-4.2114 2.8906-6.5039 2.8906-1.3291 0-2.3832-0.38229-3.1641-1.1465-0.76418-0.7642-1.1465-1.7102-1.1465-2.8398-2e-5 -1.2127 0.43981-2.2026 1.3203-2.9668 0.8805-0.7642 1.9766-1.1465 3.2891-1.1465zm47.201 0c2.0932 0 4.1617 0.79773 6.2051 2.3926v2.8164c-2.0434 1.9271-4.2114 2.8906-6.5039 2.8906-1.329 0-2.3832-0.38229-3.1641-1.1465-0.76418-0.7642-1.1465-1.7102-1.1465-2.8398 0-1.2127 0.43983-2.2026 1.3203-2.9668 0.88051-0.7642 1.9766-1.1465 3.2891-1.1465zm49.363 5.2305v6.1309h6.1309v-6.1309h-6.1309z" stroke-width="7.6012" style="font-feature-settings:normal;font-variant-caps:normal;font-variant-ligatures:normal;font-variant-numeric:normal"/>
 </g>
</svg>
