<?xml version="1.0" encoding="UTF-8" standalone="no"?>
<svg
   xmlns:dc="http://purl.org/dc/elements/1.1/"
   xmlns:cc="http://creativecommons.org/ns#"
   xmlns:rdf="http://www.w3.org/1999/02/22-rdf-syntax-ns#"
   xmlns:svg="http://www.w3.org/2000/svg"
   xmlns="http://www.w3.org/2000/svg"
   xmlns:sodipodi="http://sodipodi.sourceforge.net/DTD/sodipodi-0.dtd"
   xmlns:inkscape="http://www.inkscape.org/namespaces/inkscape"
   id="svg2"
   height="35.1mm"
   width="59.316mm"
   version="1.1"
   viewBox="0 0 210.17387 124.37003"
   sodipodi:docname="hyvjou.svg"
   inkscape:version="0.92.2 (5c3e80d, 2017-08-06)">
  <metadata
     id="metadata21">
    <rdf:RDF>
      <cc:Work
         rdf:about="">
        <dc:format>image/svg+xml</dc:format>
        <dc:type
           rdf:resource="http://purl.org/dc/dcmitype/StillImage" />
      </cc:Work>
    </rdf:RDF>
  </metadata>
  <defs
     id="defs19" />
  <sodipodi:namedview
     pagecolor="#ffffff"
     bordercolor="#666666"
     borderopacity="1"
     objecttolerance="10"
     gridtolerance="10"
     guidetolerance="10"
     inkscape:pageopacity="0"
     inkscape:pageshadow="2"
     inkscape:window-width="1366"
     inkscape:window-height="715"
     id="namedview17"
     showgrid="false"
     inkscape:snap-bbox="true"
     inkscape:snap-page="true"
     inkscape:bbox-nodes="true"
     inkscape:zoom="1.4140015"
     inkscape:cx="161.48967"
     inkscape:cy="25.13362"
     inkscape:window-x="-8"
     inkscape:window-y="-8"
     inkscape:window-maximized="1"
     inkscape:current-layer="svg2" />
  <g
     aria-label="Mubarak!"
     style="font-style:normal;font-variant:normal;font-weight:normal;font-stretch:normal;font-size:50.97945023px;line-height:1.25;font-family:sans-serif;-inkscape-font-specification:'sans-serif, Normal';font-variant-ligatures:normal;font-variant-caps:normal;font-variant-numeric:normal;font-feature-settings:normal;text-align:start;letter-spacing:0px;word-spacing:0px;writing-mode:lr-tb;text-anchor:start;fill:#000000;fill-opacity:1;stroke:none;stroke-width:3.18621564"
     id="text833">
    <path
       d="m 33.034248,82.306376 c -5.709699,0 -10.909603,12.642904 -13.152698,12.642904 -0.96861,0 -1.733302,-1.325466 -2.345055,-1.988198 -2.396034,-2.599952 -7.39202,-6.423411 -11.0115613,-6.423411 -1.019589,0 -2.0391781,0.305877 -2.8038698,1.019589 -2.4470136,2.294075 -3.72149987221,22.99173 -3.72149987221,27.17205 0,2.80387 1.32546567221,4.23129 4.18031487221,4.23129 2.9058287,0 4.0783561,-1.37644 4.0783561,-4.18031 0,-5.30187 0.3568561,-10.50177 0.9176301,-15.803633 0.050979,-0.560774 0.2039178,-3.211706 0.9176299,-3.211706 1.376445,0 6.015575,7.799859 9.940993,7.799859 4.690109,0 7.850835,-7.035167 8.513568,-7.035167 0.254897,0 0.254897,0.407836 0.254897,0.560774 0.152939,2.548973 0.101959,5.148923 0.203918,7.697893 0.152939,3.61954 -0.356856,9.48218 4.843048,9.48218 1.733301,0 4.435212,-1.22351 4.435212,-3.26268 0,-0.91763 -0.713712,-1.78428 -0.91763,-2.70191 -0.305877,-1.37645 -0.254897,-2.85485 -0.305877,-4.28228 -0.254897,-5.913614 -0.152938,-11.87821 -0.152938,-17.791826 0,-2.497993 -1.325466,-3.925418 -3.874438,-3.925418 z"
       style="font-style:normal;font-variant:normal;font-weight:normal;font-stretch:normal;font-family:'Bakso Sapi';-inkscape-font-specification:'Bakso Sapi';letter-spacing:-6.66670227px;stroke-width:3.18621564"
       id="path858" />
    <path
       d="m 61.002508,113.09796 c 0.458815,0 1.78428,2.65094 4.945006,2.65094 1.682322,0 4.486192,-0.96861 4.486192,-2.95681 0,-1.32547 -1.376445,-2.14114 -1.682322,-3.4666 -1.019589,-4.58816 -1.274486,-12.438991 -1.274486,-17.18008 0,-3.466602 0.305876,-7.646917 -4.486192,-7.646917 -1.223507,0 -2.447013,0.407835 -3.313664,1.325466 -1.274486,1.325465 -0.764692,3.823458 -0.764692,5.50578 0,5.301863 -3.007787,15.548731 -6.015575,19.678071 -0.713712,1.01959 -1.784281,2.54897 -2.80387,1.2235 -2.497993,-2.9568 -2.090157,-12.08213 -2.090157,-15.905585 0,-3.568561 -0.101959,-7.086143 -4.741089,-7.086143 -1.733301,0 -4.027377,0.91763 -4.027377,3.007787 0,0.611754 0.152939,1.274486 0.203918,1.88624 0.101959,1.274486 0.101959,2.548972 0.101959,3.823459 0.101959,8.309652 0,20.952552 11.368417,20.952552 6.52537,0 9.533158,-5.81166 10.093932,-5.81166 z"
       style="font-style:normal;font-variant:normal;font-weight:normal;font-stretch:normal;font-family:'Bakso Sapi';-inkscape-font-specification:'Bakso Sapi';letter-spacing:-6.66670227px;stroke-width:3.18621564"
       id="path860" />
    <path
       d="m 75.070109,82.714212 c -2.599952,0 -3.670521,1.937219 -3.670521,4.231294 0,1.121548 0.152939,2.192117 0.152939,3.262685 0,7.392021 0,17.740849 0,25.132869 0,3.67052 5.097945,3.26268 8.258671,3.26268 6.372431,0 13.91739,-5.81165 13.91739,-12.54094 0,-5.40382 -5.454802,-6.678308 -5.454802,-7.595938 0,-0.509794 3.823459,-4.078356 3.823459,-8.207691 0,-5.505781 -4.282274,-7.443 -9.125321,-7.443 -2.701911,0 -5.250884,-0.101959 -7.901815,-0.101959 z m 5.913616,29.771998 c -2.447014,0.5098 -1.325466,-5.30186 -1.325466,-6.11753 0,-0.86665 0.458815,-2.95681 1.733302,-2.95681 1.83526,0 4.129335,0.2549 4.129335,2.65093 0,1.9882 -3.109746,6.11753 -4.537171,6.42341 z M 80.270013,95.764951 c -0.356856,0 -0.458815,-0.407835 -0.458815,-0.713712 v -5.352842 c 0,-1.274487 0.968609,-1.529384 2.090157,-1.529384 1.274486,0 1.88624,0.764692 1.88624,1.988199 0,1.682322 -2.243096,5.607739 -3.517582,5.607739 z"
       style="font-style:normal;font-variant:normal;font-weight:normal;font-stretch:normal;font-family:'Bakso Sapi';-inkscape-font-specification:'Bakso Sapi';letter-spacing:-6.66670227px;stroke-width:3.18621564"
       id="path862" />
    <path
       d="m 104.49128,85.212205 c -1.01959,0 -2.03918,0.254897 -2.90583,0.815671 -1.631344,1.070569 -1.733302,3.823459 -2.243097,5.55676 -0.764692,2.599952 -1.580363,5.250884 -2.345055,7.850836 -1.376445,4.588148 -3.058767,9.482178 -3.058767,14.325228 0,2.14113 2.192117,2.90583 3.976397,2.90583 4.792072,0 3.823462,-3.7215 4.486192,-6.72929 0.20392,-0.91763 0.40784,-1.78428 0.61175,-2.70191 0.10196,-0.35686 0.20392,-0.56078 0.61176,-0.56078 0.25489,0 0.50979,0.051 0.81567,0.051 2.14113,0 4.33325,-0.051 6.47439,-0.051 0.45881,0 0.50979,0.30588 0.61175,0.66274 0.2549,0.76469 0.45882,1.58036 0.66273,2.39603 0.7647,3.21171 0.61176,6.37243 4.94501,6.37243 2.14114,0 4.07836,-1.17253 4.07836,-3.4666 0,-0.66273 -0.20392,-1.32547 -0.40784,-1.93722 -2.54897,-7.08614 -4.18031,-17.536931 -9.94099,-22.787814 -1.63134,-1.529384 -4.12934,-2.701911 -6.37243,-2.701911 z m 2.34505,9.686096 c 0.20392,0 0.30588,0.254897 0.40784,0.407835 0.40783,0.713713 2.03918,4.333254 2.03918,4.945004 0,0.45882 -0.35686,0.76469 -0.81568,0.76469 h -2.59995 c -0.45881,0 -0.86665,-0.30587 -0.86665,-0.81567 0,-0.15293 1.22351,-4.33325 1.37645,-4.792065 0.051,-0.203918 0.20391,-0.509794 0.45881,-0.509794 z"
       style="font-style:normal;font-variant:normal;font-weight:normal;font-stretch:normal;font-family:'Bakso Sapi';-inkscape-font-specification:'Bakso Sapi';letter-spacing:-6.66670227px;stroke-width:3.18621564"
       id="path864" />
    <path
       d="m 137.75662,104.73733 c 0,-0.30587 0.20392,-0.45881 0.45882,-0.61175 3.51758,-2.03918 6.78026,-4.384232 8.25867,-8.360629 0.35685,-0.968609 0.56077,-2.039178 0.56077,-3.109746 0,-6.47439 -6.37243,-9.584137 -12.08213,-9.584137 -2.85485,0 -12.6429,1.83526 -12.6429,5.60774 0,1.172527 1.27448,1.478404 1.27448,2.599952 0,0.254897 -0.051,0.458815 -0.051,0.662733 -0.5098,6.066554 -0.86666,12.184087 -1.22351,18.250647 -0.10196,1.32546 -0.71371,1.93721 -0.71371,4.02737 0,1.22351 -0.20392,2.44702 -0.20392,3.67052 0,2.75289 1.17253,4.28228 4.02738,4.28228 2.44701,0 4.18031,-1.01959 4.38423,-3.56857 l 0.61175,-8.05475 c 0.051,-0.40783 -0.051,-1.9882 0.56078,-1.9882 1.32546,0 7.79985,7.64692 11.52135,8.00378 0.2549,0 0.45882,0.051 0.71371,0.051 1.63135,0 3.9764,-0.71372 3.9764,-2.75289 0,-0.81568 -0.45881,-1.63135 -1.07057,-2.14114 -0.56077,-0.5098 -1.32546,-0.81567 -1.93722,-1.27449 -0.81567,-0.61175 -6.42341,-5.1999 -6.42341,-5.7097 z m -6.57635,-5.403817 c 0,-2.854849 0.40784,-5.811658 0.61176,-8.666507 0.051,-0.662733 0.45881,-1.325465 1.12154,-1.529383 0.61176,-0.152939 1.32547,-0.254897 1.93722,-0.254897 2.19212,0 4.07836,1.121547 4.07836,3.517582 0,3.619541 -3.77248,6.372431 -6.78027,7.646922 -0.10196,0.051 -0.25489,0.10195 -0.35685,0.10195 -0.45882,0 -0.61176,-0.407832 -0.61176,-0.815667 z"
       style="font-style:normal;font-variant:normal;font-weight:normal;font-stretch:normal;font-family:'Bakso Sapi';-inkscape-font-specification:'Bakso Sapi';letter-spacing:-6.66670227px;stroke-width:3.18621564"
       id="path866" />
    <path
       d="m 164.18832,83.071068 c -0.66273,0 -1.32546,0.152939 -1.93721,0.356856 -4.53718,1.631343 -8.61553,15.446774 -10.04296,19.983946 -0.56077,1.7333 -0.76469,3.36464 -1.93722,4.84305 -0.71371,0.91763 -0.56077,1.2235 -0.56077,2.24309 0,2.09016 -2.29407,4.53717 -2.29407,6.32145 0,2.09016 2.49799,3.00779 4.23129,3.00779 4.99599,0 4.74109,-7.08614 7.34104,-7.08614 h 5.14893 c 3.31366,0 0,8.81944 6.6783,8.81944 1.88624,0 4.2313,-0.91763 4.2313,-3.10974 0,-1.58037 -0.76469,-3.00779 -1.07057,-4.48619 -1.37645,-6.32146 -1.9882,-12.79585 -3.05877,-19.168278 -0.61175,-3.670521 -1.83526,-11.725274 -6.72929,-11.725274 z m -1.37644,14.682082 c 0.20392,0.152938 1.32547,7.39202 1.32547,8.10573 0,0.56078 -0.40784,0.96861 -0.96861,0.96861 h -2.2431 c -0.50979,0 -0.91763,-0.35685 -0.91763,-0.86665 0,-0.50979 0.61175,-2.19212 0.81567,-2.75289 0.20392,-0.66273 1.68232,-5.403821 1.9882,-5.4548 z"
       style="font-style:normal;font-variant:normal;font-weight:normal;font-stretch:normal;font-family:'Bakso Sapi';-inkscape-font-specification:'Bakso Sapi';letter-spacing:-6.66670227px;stroke-width:3.18621564"
       id="path868" />
    <path
       d="m 180.21305,117.73709 c 4.74109,0 4.12933,-3.92541 4.12933,-7.34104 0,-0.25489 0.10196,-0.66273 0.45882,-0.66273 0.2549,0 7.29006,5.86264 8.30965,6.57635 1.12155,0.81567 2.49799,1.22351 3.87444,1.22351 1.68232,0 3.61954,-0.96861 3.61954,-2.90583 0,-1.07057 -0.81567,-1.83526 -1.63134,-2.44702 -1.42743,-1.07056 -2.85485,-2.19211 -4.28228,-3.36464 -2.44701,-2.03918 -5.14892,-3.9764 -7.443,-6.16851 -0.25489,-0.2549 -0.40783,-0.45882 -0.40783,-0.81567 0,-1.32547 12.28605,-10.093935 12.28605,-13.815435 0,-1.937219 -2.70192,-2.80387 -4.28228,-2.80387 -0.81567,0 -1.63134,0.152938 -2.39603,0.560774 -1.52939,0.815671 -6.52537,8.105733 -7.9528,8.105733 -0.20391,0 -0.30587,-0.305877 -0.35685,-0.458815 -0.56078,-1.682322 -0.30588,-3.670521 -0.5098,-5.454802 -0.25489,-2.345054 -1.83526,-3.517582 -4.12933,-3.517582 -2.03918,0 -4.2313,0.662733 -4.2313,3.109747 0,1.83526 0.40784,3.7215 0.5098,5.55676 0.45881,6.98418 0.25489,13.96837 0.25489,20.95255 0,2.70191 1.68233,3.67052 4.18032,3.67052 z"
       style="font-style:normal;font-variant:normal;font-weight:normal;font-stretch:normal;font-family:'Bakso Sapi';-inkscape-font-specification:'Bakso Sapi';letter-spacing:-6.66670227px;stroke-width:3.18621564"
       id="path870" />
    <path
       d="m 205.89202,110.70193 c 1.9882,0 3.92542,-0.91763 3.92542,-3.16073 0,-1.07056 -0.2549,-2.09015 -0.30588,-3.16072 -0.30587,-5.811659 -0.15294,-11.623316 -0.15294,-17.434974 0,-2.447013 -1.78428,-3.262684 -3.97639,-3.262684 -1.68232,0 -3.77248,0.764691 -3.77248,2.75289 v 6.168513 c 0,5.097945 -0.10196,10.348825 0.40783,15.395795 0.20392,1.93722 2.19212,2.70191 3.87444,2.70191 z m 4.28228,9.02336 c 0,-2.24309 -1.73331,-3.31366 -3.82346,-3.31366 -1.63135,0 -3.92542,0.81567 -3.92542,2.75289 0,0.40783 -0.051,0.81567 -0.051,1.22351 0,2.34505 1.78428,3.26268 3.92542,3.26268 1.58036,0 3.82346,-0.76469 3.82346,-2.70191 z"
       style="font-style:normal;font-variant:normal;font-weight:normal;font-stretch:normal;font-family:'Bakso Sapi';-inkscape-font-specification:'Bakso Sapi';letter-spacing:-6.66670227px;stroke-width:3.18621564"
       id="path872" />
  </g>
  <g
     aria-label="Eid"
     style="font-style:normal;font-variant:normal;font-weight:normal;font-stretch:normal;font-size:98.11750793px;line-height:1.25;font-family:sans-serif;-inkscape-font-specification:'sans-serif, Normal';font-variant-ligatures:normal;font-variant-caps:normal;font-variant-numeric:normal;font-feature-settings:normal;text-align:start;letter-spacing:0px;word-spacing:0px;writing-mode:lr-tb;text-anchor:start;fill:#000000;fill-opacity:1;stroke:none;stroke-width:6.13234425"
     id="text845">
    <path
       d="m 36.548293,14.917531 c 0,-2.256703 -1.766115,-4.022818 -3.728466,-4.807758 -2.649172,-1.0792924 -5.396463,-0.9811749 -8.143753,-0.9811749 -8.143753,0 -9.713633,-0.098117 -15.7969186,0.196235 C 3.58081,9.6191856 3.384575,13.642003 3.2864575,18.351644 3.18834,28.555865 2.5996349,38.661968 2.5996349,48.866189 c 0,7.358813 0.4905876,14.619508 1.3736451,21.880204 0.2943526,2.256703 0.1962351,5.396463 1.5698802,7.260696 2.6491727,3.53223 10.9891608,3.53223 15.1100958,3.53223 4.120936,0 14.521392,-0.196235 14.521392,-6.181403 0,-4.120935 -4.807758,-5.592698 -8.143754,-5.592698 -2.158585,0 -4.415287,0.588705 -6.573873,0.588705 -1.56988,0 -1.17741,-1.275528 -1.275527,-2.35482 -0.588705,-5.690816 -1.079293,-11.283514 -1.079293,-16.974329 0,-0.981175 0.588705,-1.96235 1.56988,-2.256703 4.317171,-1.275527 16.778094,-4.120935 16.778094,-9.713633 0,-3.826583 -4.31717,-5.592698 -7.555048,-5.592698 -3.826583,0 -8.143753,3.041643 -9.321163,3.041643 -0.883058,0 -1.17741,-0.78494 -1.17741,-1.56988 0,-2.256703 0.196235,-4.611523 0.294352,-6.868226 0.09812,-1.96235 0,-3.9247 0.196235,-5.88705 0.09812,-1.373645 0.883058,-2.060468 2.256703,-2.060468 2.551055,0 5.003993,0.196235 7.555048,0.196235 3.13976,0 7.849401,-1.56988 7.849401,-5.396463 z"
       style="font-style:normal;font-variant:normal;font-weight:normal;font-stretch:normal;font-family:'Bakso Sapi';-inkscape-font-specification:'Bakso Sapi';letter-spacing:-12.83105946px;stroke-width:6.13234425"
       id="path851" />
    <path
       d="m 39.719588,32.186212 c 0,17.170564 0.686822,22.763262 0.686822,39.933826 0,4.219053 4.513406,5.887051 8.045636,5.887051 3.53223,0 8.045636,-1.667998 8.045636,-5.887051 0,-17.170564 -0.686823,-22.763262 -0.686823,-39.933826 0,-4.219052 -4.513405,-5.88705 -8.045636,-5.88705 -3.53223,0 -8.045635,1.667998 -8.045635,5.88705 z M 54.535331,6.3813078 c 0,-4.1209353 -4.611522,-5.69081541 -8.045635,-5.69081541 -3.434113,0 -8.045636,1.56988011 -8.045636,5.69081541 0,4.1209352 4.611523,5.7889332 8.045636,5.7889332 3.434113,0 8.045635,-1.667998 8.045635,-5.7889332 z"
       style="font-style:normal;font-variant:normal;font-weight:normal;font-stretch:normal;font-family:'Bakso Sapi';-inkscape-font-specification:'Bakso Sapi';letter-spacing:-12.83105946px;stroke-width:6.13234425"
       id="path853" />
    <path
       d="m 74.572101,12.072123 c -5.985168,0 -16.091271,-1.17741 -16.091271,7.358813 0,14.913862 -0.09812,29.827723 -0.09812,44.741584 0,5.003993 2.74729,7.555048 7.751283,7.555048 1.17741,0 2.35482,-0.09812 3.532231,-0.294352 17.857386,-2.452938 36.401594,-14.521392 36.401594,-34.341128 0,-17.563034 -16.09127,-25.019965 -31.495719,-25.019965 z M 74.375866,56.225002 V 25.612339 c 0,-1.96235 1.079293,-2.551055 2.649173,-2.158585 3.728465,0.78494 7.06446,1.079293 9.81175,4.120936 2.354821,2.649172 3.335996,6.083285 3.335996,9.517398 0,9.026811 -5.887051,16.581859 -13.736451,20.506559 -1.079293,0.588705 -2.060468,-0.196235 -2.060468,-1.373645 z"
       style="font-style:normal;font-variant:normal;font-weight:normal;font-stretch:normal;font-family:'Bakso Sapi';-inkscape-font-specification:'Bakso Sapi';letter-spacing:-12.83105946px;stroke-width:6.13234425"
       id="path855" />
  </g>
</svg>
