<?xml version="1.0" encoding="UTF-8" standalone="no"?>
<svg
   xmlns:dc="http://purl.org/dc/elements/1.1/"
   xmlns:cc="http://creativecommons.org/ns#"
   xmlns:rdf="http://www.w3.org/1999/02/22-rdf-syntax-ns#"
   xmlns:svg="http://www.w3.org/2000/svg"
   xmlns="http://www.w3.org/2000/svg"
   xmlns:sodipodi="http://sodipodi.sourceforge.net/DTD/sodipodi-0.dtd"
   xmlns:inkscape="http://www.inkscape.org/namespaces/inkscape"
   id="svg2"
   height="9.1575031mm"
   width="56.98716mm"
   version="1.1"
   viewBox="0 0 201.9221 32.447834"
   sodipodi:docname="hyvjou.svg"
   inkscape:version="0.92.2 (5c3e80d, 2017-08-06)">
  <metadata
     id="metadata21">
    <rdf:RDF>
      <cc:Work
         rdf:about="">
        <dc:format>image/svg+xml</dc:format>
        <dc:type
           rdf:resource="http://purl.org/dc/dcmitype/StillImage" />
        <dc:title></dc:title>
      </cc:Work>
    </rdf:RDF>
  </metadata>
  <defs
     id="defs19" />
  <sodipodi:namedview
     pagecolor="#ffffff"
     bordercolor="#666666"
     borderopacity="1"
     objecttolerance="10"
     gridtolerance="10"
     guidetolerance="10"
     inkscape:pageopacity="0"
     inkscape:pageshadow="2"
     inkscape:window-width="1366"
     inkscape:window-height="715"
     id="namedview17"
     showgrid="false"
     inkscape:snap-bbox="true"
     inkscape:snap-page="true"
     inkscape:bbox-nodes="true"
     inkscape:zoom="1.4140015"
     inkscape:cx="72.223136"
     inkscape:cy="-30.512753"
     inkscape:window-x="-8"
     inkscape:window-y="-8"
     inkscape:window-maximized="1"
     inkscape:current-layer="svg2"
     inkscape:snap-global="false"
     fit-margin-top="0"
     fit-margin-left="0"
     fit-margin-right="0"
     fit-margin-bottom="0" />
  <path
     style="font-style:normal;font-variant:normal;font-weight:normal;font-stretch:normal;font-size:50.47141647px;line-height:1.25;font-family:sans-serif;-inkscape-font-specification:'sans-serif, Normal';font-variant-ligatures:normal;font-variant-caps:normal;font-variant-numeric:normal;font-feature-settings:normal;text-align:start;letter-spacing:0px;word-spacing:0px;writing-mode:lr-tb;text-anchor:start;fill:#000000;fill-opacity:1;stroke:none;stroke-width:2.25012231"
     d="m 16.103974,0 c -1.260064,0 -2.951821,0.576393 -2.951821,2.088475 0,1.512081 1.691757,2.123751 2.951821,2.123751 1.260071,0 2.95182,-0.61167 2.95182,-2.123751 C 19.055794,0.576393 17.364045,0 16.103974,0 Z M 4.9183978,3.091572 c -0.796546,0.0045 -1.4987809,0.02306 -2.6148467,0.07706 -1.94410247,0.108008 -2.01590417,1.584217 -2.05190867,3.312307 -0.035998,3.744208 -0.25207830209,7.451828 -0.25207830209,11.196028 0,2.70015 0.18014290209,5.36455 0.50416330209,8.028695 0.1080068,0.828044 0.071969,1.980442 0.57599167,2.66448 0.9720546,1.296069 4.0323834,1.295667 5.5444656,1.295667 1.512082,0 5.3276483,-0.0726 5.3276483,-2.268724 0,-1.512082 -1.764327,-2.051908 -2.9883933,-2.051908 -0.792045,0 -1.620356,0.216815 -2.412394,0.216815 -0.576032,0 -0.431593,-0.468627 -0.467591,-0.86465 -0.2160134,-2.088113 -0.3957549,-4.140758 -0.3957549,-6.228864 0,-0.360025 0.2159799,-0.720077 0.5759979,-0.828084 1.584085,-0.468025 6.1557273,-1.510972 6.1557273,-3.563081 0,-1.404076 -1.583517,-2.053212 -2.7715843,-2.053212 -1.404076,0 -2.988695,1.116727 -3.420715,1.116727 -0.324021,0 -0.431018,-0.287983 -0.431018,-0.575999 0,-0.828042 0.071099,-1.692759 0.107104,-2.520803 0.036,-0.720042 -1.67e-4,-1.438968 0.07184,-2.159012 0.036,-0.504023 0.324048,-0.756242 0.828077,-0.756242 0.936051,0 1.836832,0.07184 2.772881,0.07184 1.1520633,0 2.8799853,-0.575998 2.8799853,-1.980074 0,-0.828042 -0.647459,-1.476544 -1.367502,-1.76456 C 10.116438,3.059956 9.1081587,3.096795 8.1000997,3.096795 c -1.494079,0 -2.3851505,-0.0097 -3.1816966,-0.0052 z M 76.825302,3.249613 c -4.032212,0 -7.703702,8.928608 -9.287786,8.928608 -0.684039,0 -1.224133,-0.936044 -1.656154,-1.404069 -1.69209,-1.836102 -5.220478,-4.536147 -7.776617,-4.536147 -0.720035,0 -1.440038,0.215647 -1.980073,0.719669 -1.728088,1.620089 -2.6279,16.237301 -2.6279,19.189463 0,1.980105 0.935709,2.988392 2.951821,2.988392 2.052108,0 2.879984,-0.971714 2.879984,-2.951827 0,-3.7442 0.251811,-7.416552 0.647834,-11.16076 0.036,-0.396022 0.145114,-2.268724 0.649137,-2.268724 0.972054,0 4.248224,5.509197 7.020376,5.509197 3.31218,0 5.544026,-4.968461 6.012058,-4.968461 0.180005,0 0.18024,0.287749 0.18024,0.395749 0.108004,1.800098 0.07167,3.63596 0.143669,5.436058 0.10801,2.556138 -0.252784,6.696455 3.419412,6.696455 1.224068,0 3.133374,-0.863907 3.133374,-2.303987 0,-0.648035 -0.505133,-1.260198 -0.649137,-1.908239 -0.216013,-0.972048 -0.179505,-2.015603 -0.215514,-3.023654 -0.180004,-4.176229 -0.108402,-8.388608 -0.108402,-12.564836 0,-1.764098 -0.936217,-2.772887 -2.736322,-2.772887 z m 29.686708,0.288652 c -1.83609,0 -2.59263,1.368303 -2.59263,2.988392 0,0.792045 0.1084,1.547952 0.1084,2.303994 v 17.748807 c 0,2.592143 3.59969,2.303986 5.83181,2.303986 4.50024,0 9.82852,-4.104512 9.82852,-8.856772 0,-3.816202 -3.85173,-4.716181 -3.85173,-5.364215 0,-0.360019 2.69974,-2.880386 2.69974,-5.796544 0,-3.888212 -3.02419,-5.255814 -6.44437,-5.255814 -1.90811,0 -3.70764,-0.07183 -5.57974,-0.07183 z m 42.28942,0.252084 c -2.0161,0 -8.92859,1.295995 -8.92859,3.96014 0,0.828044 0.8999,1.044358 0.8999,1.836397 0,0.180015 -0.0366,0.323586 -0.0366,0.46759 -0.36002,4.284234 -0.61132,8.60452 -0.86334,12.888754 -0.072,0.936051 -0.50416,1.367335 -0.50416,2.843413 0,0.864048 -0.14367,1.728597 -0.14367,2.592645 0,1.944102 0.8273,3.023655 2.8434,3.023655 1.7281,0 2.9528,-0.719401 3.09681,-2.519499 l 0.43232,-5.688135 c 0.036,-0.288016 -0.0362,-1.404076 0.39575,-1.404076 0.93605,0 5.50766,5.399552 8.1358,5.65157 0.18001,0 0.32415,0.03657 0.50415,0.03657 1.15207,0 2.80817,-0.504726 2.80817,-1.944805 0,-0.576032 -0.32423,-1.151153 -0.75625,-1.511173 -0.39603,-0.360024 -0.93548,-0.575898 -1.3675,-0.899917 -0.57603,-0.432021 -4.53615,-3.671958 -4.53615,-4.031975 0,-0.216015 0.14391,-0.324322 0.32391,-0.432329 2.48415,-1.44008 4.78777,-3.096795 5.83182,-5.904952 0.25201,-0.684031 0.39705,-1.439538 0.39705,-2.195578 0,-4.572251 -4.50063,-6.768291 -8.53285,-6.768291 z m 20.64578,0 c -0.46802,0 -0.93548,0.108068 -1.3675,0.252079 -3.20417,1.152062 -6.08416,10.908406 -7.09221,14.112579 -0.39603,1.224073 -0.54076,2.37536 -1.36881,3.419417 -0.50403,0.648034 -0.39575,0.864275 -0.39575,1.584318 0,1.476078 -1.61959,3.204234 -1.61959,4.464305 0,1.476077 1.76302,2.123743 2.98708,2.123743 3.5282,0 3.34919,-5.003729 5.18528,-5.003729 h 3.63623 c 2.34013,0 1.4e-4,6.228865 4.71639,6.228865 1.33207,0 2.98709,-0.648804 2.98709,-2.19689 0,-1.116059 -0.53892,-2.123268 -0.75493,-3.167326 -0.97206,-4.464243 -1.40428,-9.036346 -2.16032,-13.536588 C 173.76815,9.47898 172.9034,3.790349 169.44721,3.790349 Z M 24.558464,4.157363 c -1.96942,0.02532 -4.054185,0.370209 -4.054185,2.719334 0,5.472296 -0.03657,10.944278 -0.03657,16.416574 0,1.836096 1.00862,2.771578 2.844725,2.771578 0.432019,0 0.863639,-0.03509 1.295665,-0.107104 6.552358,-0.900046 13.356346,-5.329008 13.356346,-12.601408 0,-6.444351 -5.90421,-9.180685 -11.556522,-9.180685 -0.549027,0 -1.192983,-0.02672 -1.849456,-0.01829 z m 173.979876,0.06531 c -1.18806,0 -2.66317,0.539423 -2.66317,1.943499 v 4.355897 c 0,3.600194 -0.0726,7.30922 0.28734,10.873417 0.14401,1.368071 1.54825,1.908232 2.73631,1.908232 1.40408,0 2.77288,-0.648062 2.77288,-2.232153 0,-0.756041 -0.18081,-1.476109 -0.21681,-2.232151 -0.21601,-4.104218 -0.10841,-8.208529 -0.10841,-12.312756 0,-1.728088 -1.26006,-2.303985 -2.80814,-2.303985 z m -18.2778,0.539423 c -1.44007,0 -2.98839,0.467491 -2.98839,2.195579 0,1.296076 0.28849,2.628811 0.36049,3.924879 0.32402,4.932269 0.17894,9.864724 0.17894,14.796993 0,1.908105 1.18903,2.591334 2.95313,2.591334 3.34818,0 2.91524,-2.771845 2.91524,-5.183979 0,-0.180009 0.0719,-0.467584 0.32393,-0.467584 0.18001,0 5.14833,4.140518 5.86837,4.644548 0.79205,0.576032 1.76427,0.863338 2.73632,0.863338 1.18807,0 2.55606,-0.683831 2.55606,-2.051902 0,-0.756047 -0.57595,-1.295974 -1.15199,-1.727995 -1.00805,-0.756041 -2.0156,-1.547779 -3.02366,-2.375822 -1.72808,-1.44008 -3.63571,-2.80912 -5.25581,-4.357206 -0.18001,-0.180009 -0.28865,-0.323981 -0.28865,-0.575999 0,-0.93605 8.67653,-7.128543 8.67653,-9.756684 0,-1.368078 -1.9076,-1.980074 -3.02366,-1.980074 -0.57603,0 -1.1527,0.109044 -1.69273,0.39706 -1.08006,0.576031 -4.60824,5.723404 -5.6163,5.723404 -0.14399,0 -0.21607,-0.215912 -0.25208,-0.323919 -0.39601,-1.188062 -0.21648,-2.591669 -0.36048,-3.85174 -0.18001,-1.656087 -1.29517,-2.484231 -2.91526,-2.484231 z m -82.278765,0.03658 c -0.86405,0 -1.72852,0.28714 -2.340562,0.93518 -0.900045,0.936051 -0.540727,2.700238 -0.540727,3.888307 0,3.7442 -2.123378,10.980916 -4.247492,13.897073 -0.504027,0.720037 -1.260033,1.799397 -1.980072,0.86334 -1.764096,-2.088108 -1.47591,-8.532451 -1.47591,-11.232595 0,-2.520134 -0.0727,-5.003729 -3.348888,-5.003729 -1.224068,0 -2.84341,0.647667 -2.84341,2.123744 0,0.432021 0.107674,0.900213 0.143675,1.33224 0.072,0.900046 0.07183,1.79969 0.07183,2.699742 0.072,5.868319 2.5e-4,14.796985 8.028695,14.796985 4.60825,0 6.732761,-4.103816 7.128791,-4.103816 0.32401,0 1.25912,1.871665 3.491245,1.871665 1.18805,0 3.16863,-0.683095 3.16863,-2.087171 0,-0.936057 -0.97255,-1.512917 -1.18857,-2.448967 -0.72003,-3.240177 -0.89991,-8.784336 -0.89991,-12.132513 0,-2.448132 0.21685,-5.399485 -3.167325,-5.399485 z M 127.2897,5.301529 c -0.72002,0 -1.44117,0.179975 -2.0532,0.575998 -1.15207,0.75604 -1.22299,2.700813 -1.58302,3.924879 -0.54003,1.836103 -1.11613,3.708362 -1.65616,5.544465 -0.97205,3.240171 -2.16031,6.69568 -2.16031,10.115867 0,1.512081 1.54807,2.053212 2.80815,2.053212 3.38419,0 2.69931,-2.628837 3.16733,-4.752955 0.14401,-0.648034 0.28832,-1.260198 0.43232,-1.908239 0.0721,-0.252011 0.14432,-0.395748 0.43233,-0.395748 0.18001,0 0.35998,0.03657 0.576,0.03657 1.51208,0 3.06063,-0.03657 4.57272,-0.03657 0.32401,0 0.35901,0.215572 0.431,0.46759 0.18002,0.540027 0.3249,1.116695 0.4689,1.692726 0.54003,2.268124 0.43108,4.499567 3.49126,4.499567 1.51207,0 2.88128,-0.827575 2.88128,-2.447658 0,-0.468025 -0.14464,-0.935482 -0.28865,-1.367509 -1.80009,-5.00427 -2.95214,-12.385753 -7.02037,-16.093957 C 130.63721,6.129705 128.8738,5.301529 127.2897,5.301529 Z M 111.3355,7.39001 c 0.90005,0 1.33224,0.540027 1.33224,1.404076 0,1.188061 -1.58419,3.96014 -2.48423,3.96014 -0.25202,0 -0.32392,-0.288151 -0.32392,-0.504155 V 8.470162 c 0,-0.900046 0.68387,-1.080155 1.47591,-1.080155 z m 37.39409,0.504164 c 1.54809,0 2.87999,0.792139 2.87999,2.48423 0,2.556139 -2.66411,4.500742 -4.78821,5.400788 -0.0721,0.036 -0.18008,0.07184 -0.25209,0.07184 -0.32402,0 -0.43232,-0.287981 -0.43232,-0.575998 0,-2.016105 0.28831,-4.104345 0.43232,-6.120457 0.036,-0.468025 0.32348,-0.936151 0.7915,-1.080155 0.43203,-0.108007 0.93679,-0.180243 1.36881,-0.180243 z M 26.913388,8.314734 c 0.118131,-0.01125 0.25044,0.0018 0.394451,0.03787 1.368071,0.288015 2.592906,0.396423 3.600959,1.512483 0.864048,0.972055 1.223831,2.231183 1.223831,3.491246 0,3.312179 -2.160142,6.084459 -5.040302,7.524538 -0.396023,0.216007 -0.756241,-0.07214 -0.756241,-0.504163 V 9.144115 c 0,-0.540035 0.222907,-0.795638 0.577302,-0.829388 z M 16.571565,9.396198 c -1.29607,0 -2.951821,0.612229 -2.951821,2.160316 0,6.300339 0.252077,8.35297 0.252077,14.653316 0,1.54808 1.655753,2.160315 2.951821,2.160315 1.296076,0 2.951827,-0.612235 2.951827,-2.160315 0,-6.300346 -0.252085,-8.352977 -0.252085,-14.653316 0,-1.548087 -1.655751,-2.160316 -2.951819,-2.160316 z m 112.374295,2.746761 c 0.14402,0 0.21534,0.179339 0.28735,0.287346 0.28801,0.504022 1.44065,3.060529 1.44065,3.49255 0,0.32402 -0.25199,0.539433 -0.57601,0.539433 h -1.83639 c -0.32402,0 -0.61258,-0.215981 -0.61258,-0.575999 0,-0.108007 0.86376,-3.060129 0.97176,-3.38415 0.036,-0.144004 0.14522,-0.35918 0.32522,-0.35918 z m 39.5296,2.015334 c 0.14401,0.108008 0.93648,5.22068 0.93648,5.72471 0,0.396022 -0.28838,0.684405 -0.6844,0.684405 h -1.58431 c -0.36003,0 -0.64784,-0.252553 -0.64784,-0.61257 0,-0.360019 0.43199,-1.547479 0.57599,-1.943501 0.14402,-0.468026 1.18806,-3.81704 1.40408,-3.853044 z m -57.49914,3.996714 c 1.29607,0 2.91525,0.179574 2.91525,1.871665 0,1.404075 -2.19585,4.320133 -3.2039,4.536146 -1.7281,0.360018 -0.93519,-3.743298 -0.93519,-4.31933 0,-0.612029 0.32379,-2.088481 1.22384,-2.088481 z m 88.24642,9.180692 c -1.15206,0 -2.77158,0.575431 -2.77158,1.9435 0,0.288017 -0.0366,0.576635 -0.0366,0.86465 0,1.656087 1.26081,2.303987 2.7729,2.303987 1.11606,0 2.69974,-0.54016 2.69974,-1.908231 l 0.0353,-0.86465 c 0,-1.584091 -1.22367,-2.339256 -2.69974,-2.339256 z"
     id="text833"
     inkscape:connector-curvature="0" />
</svg>
