<svg width="59.316mm" height="35.1mm" version="1.1" viewBox="0 0 210.17 124.37" xmlns="http://www.w3.org/2000/svg" xmlns:cc="http://creativecommons.org/ns#" xmlns:dc="http://purl.org/dc/elements/1.1/" xmlns:rdf="http://www.w3.org/1999/02/22-rdf-syntax-ns#">
 <metadata>
  <rdf:RDF>
   <cc:Work rdf:about="">
    <dc:format>image/svg+xml</dc:format>
    <dc:type rdf:resource="http://purl.org/dc/dcmitype/StillImage"/>
    <dc:title/>
   </cc:Work>
  </rdf:RDF>
 </metadata>
 <g>
  <path d="m48.346 2.2481c-3.46 0-8.1053 1.5827-8.1053 5.7347 0 4.152 4.6454 5.8316 8.1053 5.8316 3.46 0 8.1053-1.6796 8.1053-5.8316 0-4.152-4.6453-5.7347-8.1053-5.7347z" style="font-feature-settings:normal;font-variant-caps:normal;font-variant-ligatures:normal;font-variant-numeric:normal"/>
  <path d="m17.632 10.737c-2.1872 0.01236-4.1155 0.06332-7.18 0.2116-5.3383 0.29658-5.5354 4.3501-5.6343 9.0952-0.098846 10.281-0.69218 20.462-0.69218 30.743 0 7.4143 0.49465 14.73 1.3844 22.046 0.29657 2.2737 0.19762 5.4381 1.5816 7.3163 2.6691 3.5588 11.072 3.5577 15.224 3.5577s14.629-0.19935 14.629-6.2296c0-4.152-4.8446-5.6343-8.2058-5.6343-2.1749 0-4.4493 0.59535-6.6241 0.59535-1.5817 0-1.1851-1.2868-1.2839-2.3742-0.59315-5.7337-1.0867-11.37-1.0867-17.104 0-0.98858 0.59306-1.9772 1.5816-2.2738 4.3497-1.2851 16.903-4.1489 16.903-9.7838 0-3.8554-4.3481-5.6379-7.6104-5.6379-3.8554 0-8.2066 3.0664-9.3929 3.0664-0.88972 0-1.1835-0.79077-1.1835-1.5816 0-2.2737 0.19523-4.6481 0.29409-6.9218 0.09885-1.9771-4.58e-4 -3.9512 0.19726-5.9284 0.09885-1.384 0.8898-2.0765 2.2738-2.0765 2.5703 0 5.0437 0.19726 7.614 0.19726 3.1634 0 7.9081-1.5816 7.9081-5.437 0-2.2737-1.7778-4.0544-3.755-4.8453-2.6691-1.0874-5.4378-0.98627-8.2058-0.98627-4.1026 0-6.5493-0.02663-8.7366-0.01428z" style="font-feature-settings:normal;font-variant-caps:normal;font-variant-ligatures:normal;font-variant-numeric:normal"/>
  <path d="m35.163 84.636c-5.5988 0-10.697 12.397-12.896 12.397-0.9498 0-1.6997-1.2997-2.2996-1.9496-2.3495-2.5494-7.2487-6.2985-10.798-6.2985-0.99978 0-1.9995 0.29943-2.7494 0.99927-2.3995 2.2495-3.6489 22.546-3.6489 26.645 0 2.7494 1.2992 4.1494 4.0986 4.1494 2.8494 0 3.9989-1.3492 3.9989-4.0986 0-5.1989 0.34964-10.298 0.89952-15.497 0.04999-0.54988 0.20149-3.1501 0.90133-3.1501 1.3497 0 5.8987 7.6496 9.7479 7.6496 4.599 0 7.6979-6.8988 8.3478-6.8988 0.24994 0 0.25026 0.39954 0.25026 0.5495 0.14996 2.4995 0.09952 5.0486 0.19949 7.548 0.14997 3.5492-0.35099 9.2981 4.7479 9.2981 1.6996 0 4.3507-1.1995 4.3507-3.1991 0-0.89981-0.70138-1.7498-0.90133-2.6496-0.29994-1.3497-0.24924-2.7987-0.29924-4.1984-0.24994-5.7987-0.15052-11.648-0.15052-17.446 0-2.4495-1.2999-3.8502-3.7994-3.8502z" style="font-feature-settings:normal;font-variant-caps:normal;font-variant-ligatures:normal;font-variant-numeric:normal"/>
  <path d="m76.382 85.036c-2.5494 0-3.6001 1.8997-3.6001 4.1493 0 1.0998 0.15254 2.1512 0.15254 3.2009v24.644c0 3.5992 4.9983 3.1984 8.0977 3.1984 6.2486 0 13.645-5.6992 13.645-12.298 0-5.2988-5.3467-6.547-5.3467-7.4468 0-0.49989 3.7475-4.0002 3.7475-8.0493 0-5.3988-4.1979-7.2993-8.9468-7.2993-2.6494 0-5.1499-0.09915-7.7494-0.09915zm6.6993 5.3493c1.2497 0 1.8483 0.75031 1.8483 1.9501 0 1.6496-2.2004 5.4967-3.4501 5.4967-0.34993 0-0.44747-0.39924-0.44747-0.69917v-5.2476c0-1.2497 0.94944-1.5 2.0492-1.5zm-0.50087 14.947c1.7996 0 4.0501 0.24889 4.0501 2.5984 0 1.9496-3.0496 5.9977-4.4493 6.2976-2.3995 0.49989-1.2992-5.1978-1.2992-5.9976 0-0.84981 0.44863-2.8984 1.6984-2.8984z" style="font-feature-settings:normal;font-variant-caps:normal;font-variant-ligatures:normal;font-variant-numeric:normal"/>
  <path d="m135.1 85.387c-2.7994 0-12.397 1.8001-12.397 5.4993 0 1.1498 1.2483 1.4503 1.2483 2.5501 0 0.24996-0.0508 0.44838-0.0508 0.64832-0.49989 5.9487-0.84756 11.948-1.1975 17.896-0.1 1.2997-0.70171 1.8988-0.70171 3.9484 0 1.1998-0.19831 2.4004-0.19831 3.6001 0 2.6994 1.149 4.1976 3.9484 4.1976 2.3995 0 4.0993-0.99893 4.2992-3.4984l0.60002-7.8968c0.05-0.39992-0.0506-1.95 0.54916-1.95 1.2997 0 7.6494 7.496 11.299 7.846 0.24994 0 0.44924 0.0508 0.69917 0.0508 1.5997 0 3.9001-0.7005 3.9001-2.7001 0-0.79982-0.45016-1.5976-1.05-2.0975-0.54989-0.49989-1.2993-0.80097-1.8992-1.2509-0.79983-0.59986-6.3002-5.0986-6.3002-5.5984 0-0.29993 0.20007-0.45005 0.45-0.60002 3.4493-1.9996 6.648-4.3002 8.0977-8.1994 0.34992-0.94978 0.55171-1.9986 0.55171-3.0484 0-6.3486-6.249-9.3968-11.848-9.3968zm-0.0991 5.6976c2.1495 0 3.9992 1.1006 3.9992 3.4501 0 3.5492-3.6991 6.2479-6.6485 7.4977-0.10011 0.05-0.25086 0.10164-0.35085 0.10164-0.4499 0-0.60002-0.40096-0.60002-0.80087 0-2.7994 0.40006-5.7 0.60002-8.4994 0.05-0.64985 0.44848-1.2975 1.0983-1.4975 0.59988-0.14997 1.3019-0.2517 1.9018-0.2517z" style="font-feature-settings:normal;font-variant-caps:normal;font-variant-ligatures:normal;font-variant-numeric:normal"/>
  <path d="m163.77 85.387c-0.64986 0-1.2968 0.1509-1.8967 0.35086-4.449 1.5996-8.4497 15.146-9.8494 19.595-0.54989 1.6996-0.74945 3.297-1.8992 4.7467-0.69985 0.89981-0.54917 1.202-0.54917 2.2018 0 2.0495-2.25 4.4488-2.25 6.1985 0 2.0495 2.4471 2.9492 4.1467 2.9492 4.8989 0 4.6508-6.9485 7.2002-6.9485h5.0493c3.2493 0 7.5e-4 8.6494 6.5493 8.6494 1.8496 0 4.1467-0.90139 4.1467-3.0509 0-1.5497-0.74754-2.9487-1.0475-4.3984-1.3497-6.1986-1.9503-12.548-3.0001-18.796-0.59986-3.5992-1.8012-11.497-6.6002-11.497zm-1.3475 14.395c0.19994 0.14997 1.2992 7.2504 1.2992 7.9502 0 0.54987-0.401 0.94832-0.95088 0.94832h-2.1992c-0.4999 0-0.90001-0.34928-0.90001-0.84917s0.60092-2.1502 0.80086-2.7001c0.19997-0.64986 1.6501-5.2993 1.9501-5.3493z" style="font-feature-settings:normal;font-variant-caps:normal;font-variant-ligatures:normal;font-variant-numeric:normal"/>
  <path d="m71.563 13.662c-5.4078 0.06952-11.132 1.0159-11.132 7.4664 0 15.026-0.10056 30.053-0.10056 45.08 0 5.0417 2.7665 7.6122 7.8083 7.6122 1.1863 0 2.3734-0.09889 3.5597-0.29664 17.992-2.4714 36.673-14.633 36.673-34.602 0-17.695-16.21-25.21-31.731-25.21-1.5076 0-3.2755-0.07343-5.0781-0.05028zm6.4658 11.418c0.32437-0.0309 0.68555 0.0015 1.081 0.10056 3.7566 0.79085 7.1218 1.0935 9.8898 4.158 2.3726 2.6691 3.3586 6.1231 3.3586 9.5831 0 9.0948-5.9281 16.71-13.837 20.664-1.0874 0.59313-2.0765-0.2014-2.0765-1.3877v-30.841c0-1.4829 0.61065-2.1849 1.5838-2.2776z" style="font-feature-settings:normal;font-variant-caps:normal;font-variant-ligatures:normal;font-variant-numeric:normal"/>
  <path d="m204.16 85.987c-1.6496 0-3.6978 0.749-3.6978 2.6986v6.0482c0 4.9989-0.10081 10.149 0.39897 15.098 0.19996 1.8996 2.1498 2.6496 3.7994 2.6496 1.9496 0 3.8502-0.89985 3.8502-3.0994 0-1.0498-0.25106-2.0496-0.30104-3.0994-0.29993-5.6988-0.15053-11.398-0.15053-17.096 0-2.3995-1.7496-3.1991-3.8991-3.1991z" style="font-feature-settings:normal;font-variant-caps:normal;font-variant-ligatures:normal;font-variant-numeric:normal"/>
  <path d="m178.78 86.736c-1.9996 0-4.1494 0.64912-4.1494 3.0486 0 1.7996 0.40057 3.6501 0.50055 5.4497 0.4499 6.8485 0.24846 13.697 0.24846 20.546 0 2.6494 1.651 3.5981 4.1004 3.5981 4.649 0 4.0478-3.8487 4.0478-7.198 0-0.24995 0.0998-0.64924 0.44978-0.64924 0.24994 0 7.1485 5.7491 8.1483 6.449 1.0998 0.79983 2.4497 1.1988 3.7994 1.1988 1.6496 0 3.5491-0.9495 3.5491-2.8491 0-1.0498-0.79971-1.7995-1.5996-2.3994-1.3997-1.0498-2.7987-2.1491-4.1984-3.2988-2.3995-1.9996-5.0482-3.9005-7.2978-6.05-0.24994-0.24995-0.40079-0.44985-0.40079-0.79978 0-1.2997 12.047-9.8981 12.047-13.547 0-1.8996-2.6487-2.7493-4.1984-2.7493-0.79983 0-1.6005 0.15141-2.3504 0.55132-1.4997 0.79982-6.3986 7.947-7.7983 7.947-0.19993 0-0.30001-0.29979-0.35001-0.44977-0.54987-1.6496-0.30059-3.5985-0.50053-5.3482-0.24995-2.2995-1.7984-3.4494-4.0479-3.4494z" style="font-feature-settings:normal;font-variant-caps:normal;font-variant-ligatures:normal;font-variant-numeric:normal"/>
  <path d="m64.539 86.787c-1.1997 0-2.4001 0.3987-3.2499 1.2985-1.2497 1.2997-0.7508 3.7493-0.7508 5.399 0 5.1989-2.9483 15.247-5.8977 19.296-0.69985 0.99978-1.7496 2.4985-2.7494 1.1988-2.4495-2.8994-2.0493-11.847-2.0493-15.597 0-3.4992-0.10094-6.9477-4.65-6.9477-1.6996 0-3.9481 0.8993-3.9481 2.9488 0 0.59986 0.14951 1.25 0.19949 1.8498 0.09997 1.2497 0.09974 2.4989 0.09974 3.7486 0.09997 8.1482 3.47e-4 20.546 11.148 20.546 6.3986 0 9.3485-5.6982 9.8984-5.6982 0.44989 0 1.7483 2.5988 4.8476 2.5988 1.6496 0 4.3997-0.94849 4.3997-2.8981 0-1.2997-1.3504-2.1007-1.6503-3.4004-0.99977-4.499-1.2495-12.197-1.2495-16.846 0-3.3993 0.3011-7.4972-4.3979-7.4972z" style="font-feature-settings:normal;font-variant-caps:normal;font-variant-ligatures:normal;font-variant-numeric:normal"/>
  <path d="m105.23 87.485c-0.99975 0-2.0028 0.25099-2.8526 0.80087-1.5997 1.0498-1.6968 3.7488-2.1967 5.4484-0.74983 2.5494-1.5511 5.149-2.3009 7.6985-1.3497 4.499-2.9975 9.298-2.9975 14.047 0 2.0995 2.1479 2.8501 3.8976 2.8501 4.699 0 3.7486-3.6508 4.3984-6.6002 0.19996-0.89981 0.40007-1.7494 0.60002-2.6492 0.10011-0.34992 0.20011-0.54917 0.60002-0.54917 0.24994 0 0.50091 0.0508 0.80086 0.0508 2.0995 0 4.2489-0.0508 6.3485-0.0508 0.4499 0 0.49752 0.30093 0.59748 0.65086 0.24996 0.74984 0.45346 1.5494 0.6534 2.3492 0.74984 3.1493 0.5968 6.2468 4.8459 6.2468 2.0995 0 4.0018-1.1472 4.0018-3.3967 0-0.64986-0.20176-1.2993-0.40172-1.8992-2.4994-6.9485-4.0989-17.199-9.7477-22.348-1.5996-1.4997-4.0472-2.6492-6.2468-2.6492zm2.2984 9.5011c0.19997 0 0.29918 0.24666 0.39916 0.39663 0.39991 0.69984 2.0009 4.2511 2.0009 4.851 0 0.4499-0.35095 0.74747-0.80086 0.74747h-2.5501c-0.4499 0-0.84917-0.29843-0.84917-0.79832 0-0.14998 1.2001-4.2485 1.35-4.6984 0.05-0.19995 0.20007-0.49832 0.45-0.49832z" style="font-feature-settings:normal;font-variant-caps:normal;font-variant-ligatures:normal;font-variant-numeric:normal"/>
  <path d="m49.63 28.049c-3.5588 0-8.1053 1.6811-8.1053 5.932 0 17.3 0.69217 22.936 0.69217 40.236 0 4.2508 4.5465 5.932 8.1053 5.932 3.5589 0 8.1054-1.6811 8.1054-5.932 0-17.3-0.6922-22.936-0.6922-40.236 0-4.2509-4.5465-5.932-8.1053-5.932z" style="font-feature-settings:normal;font-variant-caps:normal;font-variant-ligatures:normal;font-variant-numeric:normal"/>
  <path d="m205.11 118.08c-1.5996 0-3.8484 0.79899-3.8484 2.6986 0 0.3999-0.0508 0.80065-0.0508 1.2006 0 2.2995 1.7506 3.1991 3.8502 3.1991 1.5497 0 3.7486-0.75002 3.7486-2.6496l0.049-1.2006c0-2.1995-1.6991-3.2481-3.7486-3.2481z" style="font-feature-settings:normal;font-variant-caps:normal;font-variant-ligatures:normal;font-variant-numeric:normal"/>
 </g>
</svg>
