<?xml version="1.0" encoding="UTF-8" standalone="no"?>
<svg
   xmlns:dc="http://purl.org/dc/elements/1.1/"
   xmlns:cc="http://creativecommons.org/ns#"
   xmlns:rdf="http://www.w3.org/1999/02/22-rdf-syntax-ns#"
   xmlns:svg="http://www.w3.org/2000/svg"
   xmlns="http://www.w3.org/2000/svg"
   xmlns:sodipodi="http://sodipodi.sourceforge.net/DTD/sodipodi-0.dtd"
   xmlns:inkscape="http://www.inkscape.org/namespaces/inkscape"
   id="svg2"
   height="35.1mm"
   width="59.316mm"
   version="1.1"
   viewBox="0 0 210.17387 124.37003"
   sodipodi:docname="hyvjou.svg"
   inkscape:version="0.92.2 (5c3e80d, 2017-08-06)">
  <metadata
     id="metadata21">
    <rdf:RDF>
      <cc:Work
         rdf:about="">
        <dc:format>image/svg+xml</dc:format>
        <dc:type
           rdf:resource="http://purl.org/dc/dcmitype/StillImage" />
      </cc:Work>
    </rdf:RDF>
  </metadata>
  <defs
     id="defs19" />
  <sodipodi:namedview
     pagecolor="#ffffff"
     bordercolor="#666666"
     borderopacity="1"
     objecttolerance="10"
     gridtolerance="10"
     guidetolerance="10"
     inkscape:pageopacity="0"
     inkscape:pageshadow="2"
     inkscape:window-width="1366"
     inkscape:window-height="715"
     id="namedview17"
     showgrid="false"
     inkscape:snap-bbox="true"
     inkscape:snap-page="true"
     inkscape:bbox-nodes="true"
     inkscape:zoom="1.4140015"
     inkscape:cx="-36.529917"
     inkscape:cy="25.13362"
     inkscape:window-x="-8"
     inkscape:window-y="-8"
     inkscape:window-maximized="1"
     inkscape:current-layer="svg2" />
  <path
     style="font-style:normal;font-variant:normal;font-weight:normal;font-stretch:normal;font-size:51.60383224px;line-height:1.25;font-family:sans-serif;-inkscape-font-specification:'sans-serif, Normal';font-variant-ligatures:normal;font-variant-caps:normal;font-variant-numeric:normal;font-feature-settings:normal;text-align:start;letter-spacing:0px;word-spacing:0px;writing-mode:lr-tb;text-anchor:start;fill:#000000;fill-opacity:1;stroke:none;stroke-width:3.4402566"
     d="M 45.880859 0 C 42.295794 0 37.482422 1.6393276 37.482422 5.9414062 C 37.482422 10.243485 42.295794 11.984375 45.880859 11.984375 C 49.465925 11.984375 54.279297 10.243485 54.279297 5.9414062 C 54.279297 1.6393276 49.465925 2.8912058e-019 45.880859 0 z M 14.056641 8.796875 C 11.790367 8.8096788 9.7925313 8.8600262 6.6171875 9.0136719 C 1.0859435 9.3209632 0.88172732 13.520839 0.77929688 18.4375 C 0.67686643 29.090266 0.0625 39.640203 0.0625 50.292969 C 0.0625 57.975252 0.57421975 65.554913 1.4960938 73.134766 C 1.8033851 75.490666 1.7007394 78.768665 3.1347656 80.714844 C 5.9003876 84.40234 14.606124 84.402344 18.908203 84.402344 C 23.210282 84.402344 34.068359 84.197476 34.068359 77.949219 C 34.068359 73.64714 29.049041 72.111328 25.566406 72.111328 C 23.312936 72.111328 20.956595 72.726562 18.703125 72.726562 C 17.064238 72.726562 17.475477 71.394313 17.373047 70.267578 C 16.758464 64.326612 16.246094 58.487841 16.246094 52.546875 C 16.246094 51.522571 16.860461 50.498698 17.884766 50.191406 C 22.391705 48.85981 35.400391 45.889317 35.400391 40.050781 C 35.400391 36.055994 30.893877 34.210938 27.513672 34.210938 C 23.518885 34.210938 19.010415 37.386719 17.78125 37.386719 C 16.859376 37.386719 16.552734 36.56749 16.552734 35.748047 C 16.552734 33.392147 16.756945 30.934025 16.859375 28.578125 C 16.961805 26.529516 16.859592 24.48025 17.064453 22.431641 C 17.166884 20.997614 17.987849 20.28125 19.421875 20.28125 C 22.085067 20.28125 24.645402 20.486328 27.308594 20.486328 C 30.586368 20.486328 35.501953 18.84635 35.501953 14.851562 C 35.501953 12.495662 33.657984 10.653428 31.609375 9.8339844 C 28.843753 8.7072495 25.977427 8.8085938 23.109375 8.8085938 C 18.858512 8.8085938 16.322914 8.7840712 14.056641 8.796875 z M 69.9375 11.830078 C 64.334235 11.9021 58.398438 12.880867 58.398438 19.564453 C 58.398438 35.133881 58.296875 50.70401 58.296875 66.273438 C 58.296875 71.49739 61.164719 74.160156 66.388672 74.160156 C 67.617837 74.160156 68.847007 74.056423 70.076172 73.851562 C 88.718513 71.290801 108.07812 58.692903 108.07812 38.001953 C 108.07812 19.666904 91.278845 11.882812 75.197266 11.882812 C 73.635201 11.882812 71.805255 11.806071 69.9375 11.830078 z M 76.634766 23.654297 C 76.970866 23.622287 77.348091 23.661241 77.757812 23.763672 C 81.650169 24.583115 85.133901 24.891062 88.001953 28.066406 C 90.460284 30.832028 91.484375 34.416888 91.484375 38.001953 C 91.484375 47.425554 85.338967 55.312938 77.144531 59.410156 C 76.017796 60.024739 74.992188 59.205728 74.992188 57.976562 L 74.992188 26.017578 C 74.992188 24.481121 75.626466 23.750325 76.634766 23.654297 z M 47.212891 26.734375 C 43.525395 26.734375 38.8125 28.47635 38.8125 32.880859 C 38.8125 50.806187 39.529297 56.644985 39.529297 74.570312 C 39.529297 78.974822 44.242192 80.714844 47.929688 80.714844 C 51.617183 80.714844 56.328125 78.974822 56.328125 74.570312 C 56.328125 56.644985 55.611328 50.806187 55.611328 32.880859 C 55.611328 28.47635 50.900387 26.734375 47.212891 26.734375 z M 32.921875 85.230469 C 26.756935 85.230469 21.142644 98.882812 18.720703 98.882812 C 17.674865 98.882812 16.849982 97.449948 16.189453 96.734375 C 13.60238 93.927126 8.2089127 89.798828 4.3007812 89.798828 C 3.1998991 89.798828 2.0990991 90.129773 1.2734375 90.900391 C -1.3686796 93.377375 -2.7460938 115.72466 -2.7460938 120.23828 C -2.7460938 123.26571 -1.3148918 124.80859 1.7675781 124.80859 C 4.9050921 124.80859 6.171875 123.32235 6.171875 120.29492 C 6.171875 114.57033 6.5566242 108.95506 7.1621094 103.23047 C 7.2171535 102.62498 7.3817263 99.761719 8.1523438 99.761719 C 9.6385346 99.761719 14.648323 108.18359 18.886719 108.18359 C 23.950776 108.18359 27.362552 100.58789 28.078125 100.58789 C 28.353346 100.58789 28.353516 101.02823 28.353516 101.19336 C 28.518648 103.94556 28.464131 106.75365 28.574219 109.50586 C 28.739351 113.41399 28.188236 119.74414 33.802734 119.74414 C 35.674234 119.74414 38.591797 118.42247 38.591797 116.2207 C 38.591797 115.22991 37.821739 114.29353 37.601562 113.30273 C 37.271298 111.81654 37.326528 110.22092 37.271484 108.67969 C 36.996264 102.29457 37.105469 95.853866 37.105469 89.46875 C 37.105469 86.771589 35.67408 85.230469 32.921875 85.230469 z M 78.310547 85.671875 C 75.503298 85.671875 74.347656 87.76325 74.347656 90.240234 C 74.347656 91.451205 74.511719 92.607746 74.511719 93.763672 L 74.511719 120.90039 C 74.511719 124.86357 80.016953 124.42188 83.429688 124.42188 C 90.310201 124.42188 98.457031 118.14668 98.457031 110.88086 C 98.457031 105.04618 92.566406 103.67048 92.566406 102.67969 C 92.566406 102.12925 96.695312 98.276932 96.695312 93.818359 C 96.695312 87.873596 92.070987 85.78125 86.841797 85.78125 C 83.924459 85.78125 81.17284 85.671875 78.310547 85.671875 z M 142.9668 86.056641 C 139.88433 86.056641 129.31641 88.038064 129.31641 92.111328 C 129.31641 93.377343 130.69336 93.706998 130.69336 94.917969 C 130.69336 95.193189 130.63672 95.414589 130.63672 95.634766 C 130.08628 102.18501 129.70171 108.7896 129.31641 115.33984 C 129.20632 116.77099 128.54492 117.43264 128.54492 119.68945 C 128.54492 121.01051 128.32617 122.33129 128.32617 123.65234 C 128.32617 126.62473 129.59136 128.27539 132.67383 128.27539 C 135.31595 128.27539 137.18803 127.17408 137.4082 124.42188 L 138.06836 115.72461 C 138.1234 115.28426 138.0133 113.57812 138.67383 113.57812 C 140.10497 113.57812 147.09506 121.83539 151.11328 122.2207 C 151.3885 122.2207 151.60955 122.27539 151.88477 122.27539 C 153.64618 122.27539 156.17773 121.5045 156.17773 119.30273 C 156.17773 118.42203 155.68201 117.54263 155.02148 116.99219 C 154.416 116.44175 153.59022 116.11063 152.92969 115.61523 C 152.04898 114.95471 145.99414 110.00161 145.99414 109.45117 C 145.99414 109.12091 146.21501 108.95419 146.49023 108.78906 C 150.28828 106.5873 153.81192 104.05516 155.4082 99.761719 C 155.79351 98.715881 156.01367 97.560223 156.01367 96.404297 C 156.01367 89.413696 149.13174 86.056641 142.9668 86.056641 z M 174.5332 86.056641 C 173.81763 86.056641 173.10194 86.22123 172.44141 86.441406 C 167.54248 88.202818 163.13889 103.12061 161.59766 108.01953 C 160.99217 109.89103 160.77383 111.65177 159.50781 113.24805 C 158.7372 114.23884 158.90234 114.56904 158.90234 115.66992 C 158.90234 117.92673 156.42383 120.56955 156.42383 122.49609 C 156.42383 124.7529 159.12069 125.74414 160.99219 125.74414 C 166.38651 125.74414 166.11267 118.0918 168.91992 118.0918 L 174.47852 118.0918 C 178.05638 118.0918 174.47868 127.61523 181.68945 127.61523 C 183.72609 127.61523 186.25781 126.62471 186.25781 124.25781 C 186.25781 122.55145 185.43183 121.01034 185.10156 119.41406 C 183.61537 112.58859 182.95475 105.59731 181.79883 98.716797 C 181.1383 94.753621 179.81744 86.056641 174.5332 86.056641 z M 219.01172 86.716797 C 217.19526 86.716797 214.93945 87.542733 214.93945 89.689453 L 214.93945 96.349609 C 214.93945 101.85402 214.82847 107.52329 215.37891 112.97266 C 215.59908 115.06433 217.74604 115.89062 219.5625 115.89062 C 221.70922 115.89062 223.80078 114.90046 223.80078 112.47852 C 223.80078 111.32259 223.52575 110.22038 223.4707 109.06445 C 223.14044 102.78943 223.30664 96.515262 223.30664 90.240234 C 223.30664 87.598117 221.37862 86.716797 219.01172 86.716797 z M 191.06641 87.542969 C 188.86464 87.542969 186.49805 88.258274 186.49805 90.900391 C 186.49805 92.881978 186.93679 94.918803 187.04688 96.900391 C 187.54227 104.44143 187.32227 111.9824 187.32227 119.52344 C 187.32227 122.44078 189.13878 123.48633 191.83594 123.48633 C 196.95504 123.48633 196.29492 119.2485 196.29492 115.56055 C 196.29492 115.28533 196.40571 114.84375 196.79102 114.84375 C 197.06624 114.84375 204.66084 121.1747 205.76172 121.94531 C 206.97269 122.82602 208.45912 123.26562 209.94531 123.26562 C 211.76177 123.26562 213.85352 122.22058 213.85352 120.12891 C 213.85352 118.97298 212.9725 118.14686 212.0918 117.48633 C 210.55056 116.3304 209.00998 115.11953 207.46875 113.85352 C 204.82663 111.65175 201.90863 109.56026 199.43164 107.19336 C 199.15642 106.91814 198.99219 106.69781 198.99219 106.3125 C 198.99219 104.88135 212.25781 95.414704 212.25781 91.396484 C 212.25781 89.304808 209.34113 88.369141 207.63477 88.369141 C 206.75406 88.369141 205.87254 88.534257 205.04688 88.974609 C 203.39555 89.855315 198.00217 97.726562 196.46094 97.726562 C 196.24076 97.726562 196.12926 97.395601 196.07422 97.230469 C 195.46873 95.414013 195.74361 93.266387 195.52344 91.339844 C 195.24822 88.807815 193.54339 87.542969 191.06641 87.542969 z M 65.267578 87.597656 C 63.94652 87.597656 62.625203 88.038503 61.689453 89.029297 C 60.31335 90.460444 60.863281 93.158154 60.863281 94.974609 C 60.863281 100.6992 57.616743 111.76213 54.369141 116.2207 C 53.598523 117.32159 52.442679 118.97216 51.341797 117.54102 C 48.644636 114.34846 49.083984 104.4955 49.083984 100.36719 C 49.083984 96.5141 48.973857 92.716797 43.964844 92.716797 C 42.093344 92.716797 39.617188 93.708035 39.617188 95.964844 C 39.617188 96.625373 39.782847 97.341424 39.837891 98.001953 C 39.947979 99.378056 39.947266 100.7528 39.947266 102.12891 C 40.057354 111.1011 39.947821 124.75195 52.222656 124.75195 C 59.268302 124.75195 62.515609 118.47852 63.121094 118.47852 C 63.616491 118.47852 65.048203 121.33984 68.460938 121.33984 C 70.277393 121.33984 73.304688 120.2932 73.304688 118.14648 C 73.304688 116.71534 71.818546 115.83544 71.488281 114.4043 C 70.387399 109.45033 70.111328 100.97262 70.111328 95.853516 C 70.111328 92.110516 70.441724 87.597656 65.267578 87.597656 z M 110.07812 88.369141 C 108.97724 88.369141 107.8752 88.644515 106.93945 89.25 C 105.17804 90.405926 105.06802 93.376547 104.51758 95.248047 C 103.69192 98.055296 102.81199 100.91931 101.98633 103.72656 C 100.50014 108.68053 98.683594 113.96417 98.683594 119.19336 C 98.683594 121.50521 101.05002 122.33008 102.97656 122.33008 C 108.15071 122.33008 107.10474 118.31206 107.82031 115.06445 C 108.04049 114.07366 108.26029 113.13923 108.48047 112.14844 C 108.59056 111.76313 108.70027 111.54297 109.14062 111.54297 C 109.41585 111.54297 109.69122 111.59766 110.02148 111.59766 C 112.33334 111.59766 114.70182 111.54297 117.01367 111.54297 C 117.50907 111.54297 117.56374 111.8725 117.67383 112.25781 C 117.94905 113.08347 118.1685 113.96304 118.38867 114.84375 C 119.21433 118.31153 119.04977 121.72461 123.72852 121.72461 C 126.04037 121.72461 128.13086 120.45941 128.13086 117.98242 C 128.13086 117.26685 127.91158 116.55115 127.69141 115.89062 C 124.9392 108.23949 123.17702 96.954699 116.95703 91.285156 C 115.19562 89.633833 112.50007 88.369141 110.07812 88.369141 z M 85.685547 91.560547 C 87.06165 91.560547 87.722656 92.385973 87.722656 93.707031 C 87.722656 95.523487 85.299931 99.761719 83.923828 99.761719 C 83.538519 99.761719 83.429688 99.322452 83.429688 98.992188 L 83.429688 93.212891 C 83.429688 91.836788 84.474577 91.560547 85.685547 91.560547 z M 142.85742 92.332031 C 145.22432 92.332031 147.26172 93.541833 147.26172 96.128906 C 147.26172 100.03704 143.18706 103.01062 139.93945 104.38672 C 139.82936 104.44176 139.66478 104.49609 139.55469 104.49609 C 139.05929 104.49609 138.89453 104.05559 138.89453 103.61523 C 138.89453 100.53276 139.33451 97.340282 139.55469 94.257812 C 139.60973 93.542239 140.05005 92.827598 140.76562 92.607422 C 141.42615 92.44229 142.19689 92.332031 142.85742 92.332031 z M 112.60938 98.826172 C 112.82955 98.826172 112.93874 99.102446 113.04883 99.267578 C 113.48918 100.0382 115.25195 103.94494 115.25195 104.60547 C 115.25195 105.10087 114.86649 105.43164 114.37109 105.43164 L 111.5625 105.43164 C 111.0671 105.43164 110.62695 105.10122 110.62695 104.55078 C 110.62695 104.38565 111.94815 99.87235 112.11328 99.376953 C 112.16833 99.156777 112.33415 98.826172 112.60938 98.826172 z M 173.04688 101.91016 C 173.26705 102.07529 174.47852 109.89149 174.47852 110.66211 C 174.47852 111.26759 174.03908 111.70703 173.43359 111.70703 L 171.01172 111.70703 C 170.46128 111.70703 170.01953 111.32193 170.01953 110.77148 C 170.01953 110.22104 170.68021 108.40431 170.90039 107.79883 C 171.12057 107.08325 172.71661 101.9652 173.04688 101.91016 z M 85.134766 108.01953 C 87.116353 108.01953 89.59375 108.29379 89.59375 110.88086 C 89.59375 113.02758 86.236547 117.48614 84.695312 117.81641 C 82.053195 118.36685 83.263672 112.09164 83.263672 111.21094 C 83.263672 110.27519 83.758663 108.01953 85.134766 108.01953 z M 220.05859 122.05469 C 218.29718 122.05469 215.82031 122.93567 215.82031 125.02734 C 215.82031 125.4677 215.76562 125.90926 215.76562 126.34961 C 215.76562 128.88164 217.69205 129.87109 220.00391 129.87109 C 221.71027 129.87109 224.13086 129.04675 224.13086 126.95508 L 224.18555 125.63281 C 224.18555 123.21087 222.3154 122.05469 220.05859 122.05469 z "
     transform="matrix(0.9374997,0,0,0.9374997,-4.3587209e-4,0)"
     id="text833" />
</svg>
